<?xml version="1.0" standalone="no"?>
<!DOCTYPE svg PUBLIC "-//W3C//DTD SVG 20010904//EN"
 "http://www.w3.org/TR/2001/REC-SVG-20010904/DTD/svg10.dtd">
<svg version="1.0" xmlns="http://www.w3.org/2000/svg"
 width="612.000000pt" height="718.000000pt" viewBox="0 0 612.000000 718.000000"
 preserveAspectRatio="xMidYMid meet">

<g transform="translate(0.000000,718.000000) scale(0.100000,-0.100000)"
fill="#000000" stroke="none">
<path d="M1537 7143 l-1507 -3 2 -1643 3 -1642 3023 -2 3022 -2 0 41 0 40
-112 -3 c-62 -2 -146 -3 -185 -1 l-73 2 0 159 c0 129 -3 161 -15 171 -48 40
-208 44 -696 20 -159 -8 -332 -29 -345 -43 -2 -2 8 -38 21 -81 13 -42 29 -103
35 -134 6 -31 14 -65 16 -74 5 -17 -38 -18 -805 -18 l-811 0 0 403 c0 222 3
533 7 692 l6 288 91 -6 c81 -6 284 -39 321 -53 10 -4 16 5 21 32 10 55 -3 69
-62 65 -68 -3 -104 24 -104 79 0 33 5 43 37 67 94 71 153 145 153 190 0 29
-40 101 -87 158 -24 28 -25 32 -18 130 5 78 3 109 -9 144 -33 90 -10 137 67
134 39 -2 67 10 67 28 0 5 -18 21 -40 35 -23 15 -59 50 -80 77 -33 41 -40 57
-40 93 0 42 24 119 69 216 35 79 37 78 -189 78 l-198 0 -7 51 c-4 28 -6 110
-4 183 l4 131 -35 0 c-19 0 -713 -1 -1543 -2z m1503 -183 l0 -150 -195 0
c-107 0 -195 -4 -195 -9 0 -5 38 -45 85 -89 47 -45 89 -91 94 -104 12 -34 3
-103 -25 -182 -23 -67 -23 -70 -7 -117 16 -45 16 -50 0 -84 -24 -51 -22 -61
24 -102 78 -71 88 -126 36 -195 -23 -30 -48 -48 -85 -63 -59 -23 -65 -37 -22
-55 62 -26 140 -144 140 -213 0 -11 -16 -41 -35 -67 -42 -58 -44 -79 -6 -122
46 -53 52 -73 50 -161 -1 -117 0 -119 77 -111 l64 7 0 -607 0 -606 -711 0
-711 0 7 36 c3 20 16 71 29 113 l22 76 -51 -17 c-27 -10 -75 -17 -106 -18 -68
0 -91 15 -144 97 -45 68 -61 83 -92 83 -13 0 -49 11 -81 23 -40 17 -69 23
-100 19 -52 -5 -119 18 -152 53 -23 24 -28 25 -94 19 -71 -6 -71 -6 -114 31
-24 21 -55 59 -70 85 -15 26 -47 63 -71 81 -24 19 -55 55 -69 81 -23 43 -31
49 -81 63 -31 9 -64 18 -73 21 -17 5 -18 -20 -18 -420 l0 -426 -150 0 -150 0
2 1483 c3 1391 4 1485 21 1526 36 92 96 140 198 160 24 5 655 9 1402 10 l1357
1 0 -150z"/>
<path d="M1454 6865 c-27 -20 -68 -45 -91 -56 -24 -11 -43 -25 -43 -29 0 -5
-23 -32 -50 -60 l-51 -52 -44 37 c-73 59 -174 76 -196 33 -16 -32 -80 -98 -95
-98 -6 0 -17 6 -23 14 -9 11 -5 15 18 19 23 5 38 20 64 64 19 32 32 61 30 66
-7 12 -377 9 -390 -4 -9 -9 0 -22 38 -51 27 -22 49 -41 49 -42 0 -10 -59 11
-88 31 -43 28 -52 29 -105 2 -54 -28 -69 -48 -51 -67 8 -7 14 -18 14 -23 0 -5
12 -3 28 5 20 10 39 12 72 6 25 -5 50 -9 55 -10 6 0 4 -4 -3 -9 -7 -4 -32 -5
-55 -1 -36 7 -45 5 -77 -21 -60 -48 -70 -126 -24 -180 16 -17 18 -39 6 -39
-20 0 -54 51 -59 89 -3 23 -10 41 -15 41 -6 0 -8 -14 -4 -32 20 -108 20 -114
3 -99 -35 28 -17 -11 19 -44 l36 -34 -20 -33 c-12 -19 -19 -43 -17 -54 2 -10
6 -31 9 -46 4 -19 19 -32 52 -49 l47 -22 -56 -17 c-59 -19 -124 -59 -110 -69
14 -10 33 -50 33 -68 1 -22 17 -43 52 -66 63 -40 113 -8 113 75 0 50 1 51 54
85 l53 34 -5 -38 c-7 -52 -12 -71 -20 -79 -4 -4 -7 -18 -7 -30 0 -14 -14 -34
-37 -53 -47 -39 -91 -40 -167 -7 l-55 25 6 -32 c3 -18 10 -38 16 -45 7 -9 4
-19 -10 -35 -29 -32 -44 -63 -37 -80 3 -9 1 -32 -5 -52 -10 -37 -10 -37 10
-19 12 11 32 17 46 16 13 -2 30 2 38 8 8 7 15 7 19 1 4 -5 44 -7 100 -4 107 7
106 8 106 -96 0 -52 -1 -53 -18 -38 -22 20 -43 22 -60 5 -8 -8 -18 -9 -34 -1
-13 6 -37 8 -54 6 -18 -3 -35 0 -38 6 -4 6 -19 11 -34 11 -15 0 -38 9 -52 20
-53 42 -66 17 -23 -45 30 -43 37 -110 14 -124 -7 -5 -12 -11 -12 -15 2 -17 0
-20 -7 -9 -5 9 -12 6 -21 -10 -13 -20 -13 -21 2 -9 13 11 16 10 19 -5 2 -10
-2 -34 -9 -53 -15 -46 -8 -74 35 -138 34 -50 67 -66 67 -33 0 8 6 16 13 19 6
2 12 -3 12 -11 0 -9 -5 -17 -12 -19 -6 -2 -8 -9 -4 -16 5 -8 15 -6 36 10 59
43 45 -5 -19 -70 -27 -27 -34 -29 -56 -19 -14 7 -25 20 -25 30 0 25 -17 21
-24 -7 -10 -41 2 -57 38 -51 36 7 59 -12 70 -58 8 -32 42 -70 59 -64 6 2 14
14 17 28 3 13 14 25 25 27 13 3 31 27 53 70 50 103 63 149 57 206 -3 37 -2 44
4 26 5 -14 9 -43 10 -64 2 -71 -76 -291 -110 -312 -26 -16 -82 -4 -111 23 -15
15 -28 22 -28 15 0 -6 -6 -9 -14 -6 -8 3 -17 0 -22 -7 -13 -21 72 -89 112 -89
19 0 34 5 34 10 0 6 7 10 16 10 12 0 15 -7 11 -27 -3 -15 2 -44 10 -65 14 -36
79 -97 117 -111 13 -5 17 -14 13 -29 -4 -15 7 -36 46 -79 65 -73 93 -81 150
-43 31 21 42 24 46 13 9 -30 71 -77 115 -88 37 -9 53 -9 80 3 31 13 35 12 62
-10 34 -27 108 -42 128 -25 11 9 21 -2 51 -53 78 -133 118 -146 248 -81 68 33
77 41 89 77 12 37 18 43 60 55 26 7 49 17 52 22 4 5 22 5 43 0 76 -17 127 -11
171 21 23 17 42 34 42 40 0 5 -12 22 -26 37 -14 15 -35 48 -47 71 -23 49 -40
60 -63 41 -9 -7 -26 -18 -38 -24 -14 -8 -20 -19 -19 -36 5 -48 14 -69 28 -69
8 0 15 -8 15 -19 0 -14 -10 -20 -42 -24 -36 -5 -46 -3 -60 16 -10 12 -18 29
-18 38 0 9 -22 33 -50 55 -27 21 -49 42 -50 47 0 13 23 7 42 -10 18 -16 20
-16 41 9 27 32 57 48 90 48 14 0 30 7 37 15 7 8 19 15 27 15 8 0 26 12 40 26
19 19 44 29 89 37 52 9 64 15 66 31 4 26 45 32 104 16 46 -13 54 -30 54 -116
0 -23 5 -46 11 -50 8 -4 9 0 4 15 -4 12 -2 21 4 21 6 0 11 13 11 29 0 33 17
50 54 53 15 1 27 9 28 18 0 8 2 20 2 25 3 22 23 42 52 54 43 17 35 45 -24 82
-62 39 -91 38 -99 -2 -4 -24 -8 -28 -14 -16 -8 14 6 69 30 122 6 11 19 40 31
65 27 59 41 83 63 104 9 10 17 24 17 32 0 22 43 85 91 131 51 49 117 76 166
67 26 -5 33 -3 33 10 0 9 5 16 10 16 6 0 10 -7 10 -15 0 -9 7 -27 16 -40 17
-27 16 -76 -3 -83 -7 -2 -13 3 -13 11 0 9 6 18 13 21 20 8 -44 56 -75 56 -55
0 -104 -29 -157 -94 -28 -35 -51 -72 -51 -83 0 -11 -22 -48 -50 -82 -27 -34
-50 -72 -50 -84 0 -12 11 -46 25 -75 27 -57 50 -72 116 -72 60 0 79 13 73 53
-3 17 0 39 6 47 9 13 13 12 29 -7 24 -28 31 -29 31 -3 0 11 9 29 20 40 11 11
20 24 20 29 0 5 6 12 13 15 6 3 2 3 -10 0 -33 -8 -102 14 -129 41 -18 18 -24
35 -24 69 0 25 5 48 10 51 6 3 10 -1 10 -10 0 -29 30 -74 60 -90 44 -23 91
-20 97 6 6 21 6 21 18 -2 13 -23 13 -22 24 16 6 22 11 46 11 53 0 6 9 29 20
49 11 21 20 56 20 78 0 46 -32 105 -61 112 -14 4 -18 11 -14 22 4 9 9 30 12
47 3 18 20 45 39 64 50 47 42 97 -31 193 -40 53 -70 70 -97 56 -13 -7 -23 -4
-38 11 -33 33 -22 53 30 55 71 4 116 28 150 81 16 27 30 53 30 59 0 7 -18 37
-40 67 -32 45 -46 57 -76 63 -22 4 -41 2 -47 -4 -16 -16 -64 -13 -70 3 -9 23
19 39 55 32 37 -6 45 -3 76 38 31 40 28 76 -7 110 -29 28 -29 29 -11 45 30 26
60 125 60 196 l0 63 -37 13 c-20 6 -57 31 -82 54 -25 23 -56 47 -68 54 -32 16
-119 13 -156 -6 -31 -16 -32 -16 -17 3 8 10 23 28 33 39 18 20 18 20 -150 23
-92 1 -173 0 -180 -2 -8 -3 -11 -16 -8 -33 2 -15 7 -45 10 -65 5 -32 10 -38
31 -38 35 0 25 -24 -11 -28 -34 -4 -55 18 -55 59 0 15 -4 31 -10 34 -5 3 -10
-1 -10 -9 0 -9 -3 -16 -7 -16 -5 0 -14 -4 -21 -9 -20 -12 38 -103 70 -108 55
-8 84 -2 105 22 35 40 70 32 50 -12 -10 -23 -8 -28 17 -48 16 -13 26 -27 23
-32 -9 -14 -113 -5 -169 15 -44 14 -49 15 -60 0 -19 -24 -61 -30 -86 -12 -30
21 -28 31 11 54 l32 20 -35 0 c-35 0 -80 -23 -80 -41 0 -5 9 -9 19 -9 31 0 35
-19 7 -32 -22 -9 -29 -8 -46 7 -36 32 -26 68 34 122 50 46 52 50 35 61 -18 12
-18 14 -4 43 9 16 25 33 36 38 18 6 19 9 7 19 -12 9 -25 -2 -69 -63 -30 -41
-57 -75 -60 -75 -4 0 -10 11 -13 24 -3 13 -30 43 -58 66 -57 46 -166 103 -180
94 -4 -3 -8 0 -8 6 0 6 -4 8 -10 5 -5 -3 -10 -2 -10 3 0 10 -67 32 -97 32 -11
0 -42 -16 -69 -35z m236 -71 c0 -4 -11 -19 -25 -36 -14 -16 -25 -34 -25 -40 0
-6 18 -27 39 -47 41 -37 58 -78 46 -108 -5 -15 -10 -13 -35 17 l-29 35 -104 3
-105 4 -27 -36 c-47 -61 -72 -42 -38 29 17 35 20 37 58 39 31 2 31 47 1 84
-33 38 -34 65 -4 60 17 -2 26 -14 36 -51 15 -52 58 -90 97 -85 26 4 49 52 51
108 1 25 3 48 3 53 1 8 61 -20 61 -29z m636 -97 c51 -30 75 -56 72 -79 -5 -35
-39 -30 -51 7 -16 51 -37 67 -79 63 -44 -4 -47 -1 -15 12 30 12 48 11 73 -3z
m242 -18 c10 -15 16 -18 26 -10 17 14 52 -11 60 -44 6 -23 10 -25 41 -19 49 9
60 -20 20 -52 -26 -20 -27 -23 -12 -44 14 -20 13 -25 -24 -80 -21 -33 -39 -67
-39 -76 0 -9 14 -32 30 -51 29 -32 29 -35 14 -59 -19 -28 -48 -47 -58 -37 -14
14 -4 33 25 49 41 21 23 34 -46 34 -42 0 -57 -5 -88 -31 -52 -43 -67 -34 -67
41 l0 60 34 0 c36 0 86 32 86 56 0 8 4 14 10 14 5 0 28 16 50 36 51 47 54 87
9 135 -22 24 -33 29 -38 20 -6 -8 -12 -3 -21 18 -6 17 -17 29 -23 28 -6 -1
-13 6 -15 16 -5 23 10 22 26 -4z m-1805 -22 c-45 -22 -52 -41 -33 -78 16 -29
4 -23 -20 11 -12 16 -23 42 -26 57 -4 22 -3 24 10 14 12 -10 20 -9 43 3 15 8
37 15 48 15 13 0 6 -7 -22 -22z m350 9 c75 -31 115 -99 82 -136 -25 -28 -85
-28 -85 -1 0 11 5 23 10 26 6 3 10 0 10 -8 0 -16 24 -30 34 -20 12 12 6 51 -9
63 -22 18 -76 7 -196 -40 -63 -25 -119 -40 -143 -39 -37 0 -39 1 -18 11 27 14
28 34 2 50 -24 16 -26 34 -3 42 10 4 29 -2 46 -15 28 -20 32 -20 61 -7 17 9
51 32 74 52 48 39 81 45 135 22z m1413 -40 c3 -8 4 -23 2 -33 -3 -13 -7 -9
-15 15 -12 31 1 48 13 18z m-1901 -50 c10 -20 14 -44 10 -55 -8 -25 -25 -28
-25 -5 0 9 -12 28 -26 41 -21 19 -24 26 -14 38 20 24 38 17 55 -19z m-129 -19
c8 -4 14 -15 14 -22 0 -8 9 -15 19 -15 11 0 23 -9 26 -20 3 -11 12 -20 20 -20
16 0 29 -35 20 -50 -15 -24 -93 -4 -132 32 -28 26 -31 83 -6 118 17 24 18 24
21 5 3 -11 10 -24 18 -28z m2122 8 c3 -38 -39 -88 -71 -83 -30 4 -33 31 -5 43
13 6 27 24 32 43 12 42 40 40 44 -3z m-1118 10 c0 -22 -37 -55 -55 -49 -22 9
-19 20 11 43 32 25 44 26 44 6z m132 -15 c13 -23 14 -30 4 -30 -18 0 -49 37
-41 49 10 17 19 13 37 -19z m-292 -26 c0 -8 -4 -12 -10 -9 -5 3 -10 13 -10 21
0 8 5 12 10 9 6 -3 10 -13 10 -21z m-510 -88 c-17 -10 -30 -11 -42 -5 -28 15
-22 19 25 19 41 -1 41 -1 17 -14z m110 10 c0 -9 -30 -14 -35 -6 -4 6 3 10 14
10 12 0 21 -2 21 -4z m207 -2 c-3 -3 -12 -4 -19 -1 -8 3 -5 6 6 6 11 1 17 -2
13 -5z m303 -10 c0 -12 -4 -14 -12 -7 -7 6 -20 13 -28 16 -9 3 -3 6 13 6 19 1
27 -4 27 -15z m127 10 c-3 -3 -12 -4 -19 -1 -8 3 -5 6 6 6 11 1 17 -2 13 -5z
m198 -1 c-11 -3 -24 -9 -29 -14 -15 -14 -26 -11 -26 6 0 11 10 15 38 14 21 -1
28 -3 17 -6z m405 -2 c-8 -5 -33 -5 -55 -1 -40 8 -40 8 15 9 35 0 50 -3 40 -8z
m122 -6 c-16 -12 -26 -13 -42 -5 -29 16 -25 20 22 20 41 0 42 0 20 -15z m-642
-13 c0 -5 -9 -17 -21 -28 -36 -32 -42 -53 -25 -79 23 -35 20 -38 -14 -14 -27
21 -31 21 -47 7 -23 -20 -84 -51 -89 -45 -2 2 12 22 31 44 37 43 43 70 23 92
-10 11 -8 10 10 0 12 -8 22 -22 22 -31 0 -11 8 -18 19 -18 21 0 44 23 34 34
-4 4 3 16 17 26 27 21 40 25 40 12z m-901 -36 c8 -10 9 -16 1 -21 -10 -6 -49
31 -50 48 0 10 33 -8 49 -27z m1595 -1 c-18 -28 -17 -27 -39 -19 -14 6 -12 10
12 25 38 26 47 24 27 -6z m-1842 -11 c42 -14 49 -14 77 0 16 9 32 16 36 16 3
0 5 -40 5 -89 0 -83 -2 -90 -25 -105 -13 -9 -30 -16 -37 -16 -8 0 -6 5 5 11
21 13 23 85 3 115 -8 11 -37 30 -65 44 -28 13 -51 27 -51 32 0 10 -1 11 52 -8z
m328 -4 c-6 -11 -16 -18 -21 -14 -6 3 -3 12 8 20 24 18 26 17 13 -6z m1430
-20 c0 -8 14 -27 32 -43 31 -25 31 -27 6 -16 -23 10 -32 8 -72 -21 -25 -19
-48 -31 -51 -28 -3 3 11 27 31 53 31 41 34 51 25 71 -10 22 -9 23 9 12 11 -7
20 -20 20 -28z m-1567 -15 c4 -8 2 -17 -3 -20 -6 -4 -10 3 -10 14 0 25 6 27
13 6z m1058 -45 c18 -6 95 -10 169 -10 125 1 153 5 222 34 14 7 14 2 -4 -33
l-20 -41 -219 0 c-214 0 -219 0 -219 20 0 12 -7 34 -15 49 -20 39 -7 47 25 16
15 -14 42 -30 61 -35z m-885 -27 c23 -32 1 -29 -36 5 -23 20 -29 32 -24 50 l7
23 18 -28 c10 -15 26 -38 35 -50z m551 27 l-22 -50 -235 0 -236 0 -14 38 c-8
20 -16 40 -18 43 -2 4 16 -3 40 -15 38 -18 63 -21 205 -24 170 -4 255 9 283
43 20 25 20 18 -3 -35z m973 40 c0 -5 -4 -10 -10 -10 -5 0 -10 5 -10 10 0 6 5
10 10 10 6 0 10 -4 10 -10z m-1621 -23 c-2 -1 -13 -9 -24 -17 -19 -14 -19 -14
-6 3 7 9 18 17 24 17 6 0 8 -1 6 -3z m1621 -27 c0 -11 -2 -20 -4 -20 -2 0 -6
9 -9 20 -3 11 -1 20 4 20 5 0 9 -9 9 -20z m-805 -30 c4 -6 -7 -10 -27 -10 -25
0 -29 3 -18 10 19 13 37 13 45 0z m704 -19 c11 -7 11 -10 -1 -17 -36 -21 -41
-51 -39 -251 1 -111 1 -113 32 -148 27 -30 29 -36 14 -41 -10 -4 -30 1 -47 10
-16 10 -36 15 -44 12 -12 -5 -14 25 -14 198 l0 202 38 21 c44 25 43 25 61 14z
m-1805 -40 c44 -16 46 -19 23 -23 -29 -6 -68 10 -75 30 -5 15 -6 15 52 -7z
m396 -207 c0 -201 0 -202 -22 -207 -13 -2 -32 -8 -43 -13 -17 -7 -16 -3 7 24
33 39 42 104 36 245 -3 68 -10 113 -21 134 -22 42 -22 43 13 30 l30 -11 0
-202z m1700 207 c0 -11 -4 -23 -10 -26 -5 -3 -10 -12 -10 -20 0 -8 -11 -31
-25 -51 -14 -20 -25 -47 -25 -59 0 -31 61 -82 107 -91 97 -18 133 -4 120 47
-10 39 -58 62 -113 53 -41 -6 -46 -5 -42 12 3 16 14 20 64 22 50 2 65 -1 88
-19 37 -29 47 -58 30 -90 -21 -41 -39 -50 -119 -60 -70 -9 -79 -8 -111 12 -69
42 -76 64 -53 170 9 39 20 61 48 86 42 38 51 41 51 14z m-953 -112 c71 -26 76
-31 60 -52 -11 -17 -15 -17 -49 -2 -57 23 -63 18 -24 -19 47 -43 51 -80 5 -42
-40 34 -81 34 -103 1 -20 -30 -48 -32 -87 -4 -16 11 -39 20 -52 19 -12 -1 -31
-2 -42 -1 -17 2 -16 4 8 17 32 17 78 11 98 -12 21 -26 55 -17 69 19 14 35 49
97 55 97 3 0 30 -10 62 -21z m-461 -10 c11 -18 23 -79 15 -79 -14 0 -52 62
-47 76 6 17 22 18 32 3z m734 -99 c0 -34 -73 -64 -84 -34 -10 27 -7 34 26 54
35 21 58 13 58 -20z m-1420 -25 c0 -14 -4 -25 -10 -25 -5 0 -10 11 -10 25 0
14 5 25 10 25 6 0 10 -11 10 -25z m968 -51 c21 -6 3 -24 -24 -24 -23 0 -24 -2
-24 -72 0 -40 -4 -80 -10 -88 -15 -24 -21 -5 -9 29 7 20 9 61 6 102 l-6 69 27
-6 c15 -3 33 -8 40 -10z m1050 3 c13 -15 10 -65 -6 -92 -11 -20 -11 -20 -12 2
0 12 -4 25 -10 28 -5 3 -10 22 -10 41 0 35 18 46 38 21z m-861 -49 c-3 -7 -5
-2 -5 12 0 14 2 19 5 13 2 -7 2 -19 0 -25z m-1027 -62 c0 -79 -11 -99 -38 -73
-13 13 -13 19 -2 32 8 9 11 30 7 54 -4 36 5 61 25 61 4 0 8 -33 8 -74z m559
48 c12 -9 38 -41 57 -70 21 -32 49 -62 72 -73 20 -11 30 -20 22 -21 -28 0 -78
38 -109 84 -38 55 -62 69 -102 61 -22 -5 -29 -3 -29 8 0 15 17 23 50 26 9 0
26 -6 39 -15z m1221 -4 c0 -11 -4 -20 -9 -20 -5 0 -7 9 -4 20 3 11 7 20 9 20
2 0 4 -9 4 -20z m-1696 -5 c3 -8 1 -15 -4 -15 -6 0 -10 7 -10 15 0 8 2 15 4
15 2 0 6 -7 10 -15z m1216 -10 c0 -23 -2 -24 -21 -15 -16 9 -18 14 -8 26 17
21 29 17 29 -11z m702 -62 c10 -9 18 -20 18 -25 0 -4 -40 -8 -90 -8 -81 0 -90
2 -90 18 0 29 8 32 78 32 47 0 71 -5 84 -17z m-1867 -23 c38 -30 69 -38 80
-20 3 6 11 10 16 10 5 0 2 -11 -7 -25 -15 -24 -15 -26 15 -67 34 -46 34 -60
-1 -34 -71 51 -64 49 -95 31 l-28 -17 28 25 c27 26 36 56 17 58 -5 1 -15 2
-21 3 -17 2 -61 66 -45 66 2 0 20 -13 41 -30z m1625 21 c0 -5 -11 -23 -25 -39
-27 -32 -32 -61 -13 -80 9 -9 5 -9 -18 0 -27 10 -35 8 -72 -17 -23 -15 -45
-25 -49 -21 -3 3 9 25 27 47 29 37 32 45 23 69 l-10 28 26 -16 c26 -14 30 -14
66 11 45 30 45 31 45 18z m-834 -37 c8 -20 13 -38 10 -41 -5 -6 -36 51 -36 67
0 20 11 9 26 -26z m364 -33 c0 -5 -14 -14 -30 -20 -27 -9 -32 -7 -46 14 -9 14
-14 32 -10 40 5 14 11 13 46 -5 22 -11 40 -24 40 -29z m850 -6 c12 -11 28 -32
36 -47 14 -28 14 -28 -26 -34 -22 -4 -43 -11 -46 -15 -7 -12 -124 -11 -124 1
0 6 -7 10 -15 10 -8 0 -15 -5 -15 -10 0 -7 -22 -10 -57 -8 l-58 3 -3 50 c-3
48 -1 51 25 61 15 5 80 9 144 9 103 0 120 -2 139 -20z m-2059 -32 c-9 -16 -10
-14 -11 12 0 21 3 26 11 18 8 -8 8 -16 0 -30z m1699 15 c0 -18 -2 -20 -9 -8
-6 8 -7 18 -5 22 9 14 14 9 14 -14z m-973 -12 c-2 -6 -19 -14 -38 -17 -56 -10
-109 -37 -119 -61 -8 -21 -9 -21 -9 8 -1 31 15 48 74 79 25 13 97 7 92 -9z
m198 -76 c22 -7 50 -20 63 -28 17 -11 39 -13 90 -8 l67 6 80 -57 c96 -69 80
-85 -18 -19 -67 45 -68 45 -132 39 -48 -4 -70 -2 -87 9 -13 8 -41 21 -63 28
-53 16 -85 37 -85 55 0 14 3 14 23 1 12 -7 40 -19 62 -26z m702 0 c24 -19 25
-20 5 -20 -37 0 -56 -44 -58 -134 0 -45 -7 -113 -14 -152 -15 -83 -8 -124 20
-124 27 0 65 55 85 125 22 75 32 234 16 262 -8 17 -8 22 4 27 22 8 21 -213 -1
-303 -18 -72 -77 -207 -117 -266 -22 -32 -26 -35 -35 -19 -7 13 -3 27 19 57
62 86 15 138 -75 83 -36 -22 -42 -23 -62 -9 l-22 14 38 72 c47 87 70 177 70
277 l0 75 48 26 c26 15 49 27 50 28 2 0 15 -8 29 -19z m-1481 -24 l41 -18 5
-97 c6 -106 32 -197 78 -272 21 -34 25 -50 17 -58 -15 -15 -25 -14 -50 7 -13
10 -21 26 -19 39 2 12 -6 51 -17 86 -11 35 -22 98 -26 138 -9 98 -21 134 -57
171 -16 16 -26 28 -21 26 4 -3 27 -12 49 -22z m-136 -3 c0 -5 -5 -15 -10 -23
-8 -12 -10 -11 -10 8 0 12 5 22 10 22 6 0 10 -3 10 -7z m1953 -18 c19 -8 22
-38 6 -83 -9 -25 -20 -34 -61 -48 -34 -11 -65 -32 -95 -63 l-45 -46 5 105 c3
65 8 105 16 108 6 2 11 13 11 24 0 20 4 21 73 15 39 -3 80 -8 90 -12z m-1386
-29 c-3 -8 -22 -18 -41 -22 -51 -9 -124 -58 -132 -89 -7 -27 -24 -35 -24 -10
0 50 54 97 144 126 56 17 61 17 53 -5z m-732 -32 l60 1 3 -33 c5 -48 -19 -64
-83 -57 -77 9 -135 35 -135 63 0 19 5 22 40 22 25 0 40 5 40 13 0 8 3 9 8 1 4
-6 33 -11 67 -10z m1160 -54 c20 -39 20 -76 -1 -37 -8 15 -17 27 -20 27 -3 0
-29 -18 -58 -40 -50 -36 -56 -45 -87 -130 -34 -97 -77 -166 -110 -178 -24 -9
-89 -3 -89 8 0 4 19 10 41 13 63 8 93 45 141 169 38 100 45 111 90 143 26 19
48 39 48 45 0 22 30 8 45 -20z m189 -8 c-3 -15 -15 -40 -26 -55 -14 -20 -19
-40 -16 -68 5 -58 -8 -47 -16 12 -6 43 -4 55 12 73 11 11 22 34 26 49 4 15 11
25 16 22 6 -4 7 -18 4 -33z m81 -63 c9 -17 14 -36 12 -42 -4 -12 -37 44 -37
63 0 18 9 11 25 -21z m-1587 -31 c8 -8 8 -17 1 -30 -17 -33 15 -58 72 -58 38
0 51 -4 59 -19 13 -25 13 -71 1 -71 -6 0 -47 14 -93 30 -72 26 -85 35 -95 61
-9 24 -9 31 2 35 11 5 12 10 2 25 -10 16 -9 21 3 29 20 13 34 12 48 -2z m2322
-42 c0 -8 10 -16 22 -18 24 -3 36 -34 20 -50 -7 -7 -20 -4 -41 8 -23 14 -31
26 -31 46 0 18 5 28 15 28 8 0 15 -6 15 -14z m-807 -63 c32 -7 62 -53 39 -61
-7 -2 -24 -22 -38 -43 -14 -22 -39 -49 -57 -59 -37 -23 -87 -27 -87 -6 0 20
30 41 54 38 16 -2 26 8 43 45 21 46 21 47 2 61 -25 17 -26 47 -1 37 9 -3 30
-9 45 -12z m316 -145 c-6 -13 -21 -33 -32 -45 l-20 -22 22 -36 21 -37 -26 21
c-34 27 -45 26 -90 -4 -62 -42 -66 -34 -15 33 21 29 23 38 14 63 -13 33 -11
35 22 13 22 -15 26 -14 62 10 46 32 57 33 42 4z m-1174 2 c3 -6 -4 -24 -16
-41 -18 -25 -20 -35 -10 -55 15 -33 2 -30 -41 10 -55 52 -77 99 -33 70 23 -15
26 -15 51 5 30 23 40 26 49 11z m990 -76 c-59 -77 -53 -131 13 -120 20 3 49
15 64 26 23 17 32 18 49 10 11 -6 19 -15 17 -19 -2 -5 -28 -30 -58 -55 -106
-91 -223 -150 -369 -186 -41 -11 -75 -18 -76 -17 0 1 -10 21 -22 45 l-22 43
25 46 c13 25 24 54 24 64 0 12 18 22 68 38 83 25 180 82 241 141 39 38 48 43
58 31 10 -12 8 -21 -12 -47z m-1485 41 c16 -19 -6 -53 -24 -35 -5 5 -20 10
-32 10 -25 0 -39 14 -29 30 10 15 71 12 85 -5z m315 -41 c-17 -26 -18 -27 -31
-9 -15 21 -10 31 21 37 29 6 30 2 10 -28z m398 -94 c35 -17 86 -36 115 -42 45
-11 52 -16 52 -38 1 -14 7 -36 15 -50 12 -22 11 -27 -2 -42 -14 -16 -17 -15
-37 15 -12 18 -47 45 -81 63 -33 17 -91 47 -129 67 -38 21 -77 37 -88 37 -10
0 -18 7 -18 18 -1 9 -7 28 -15 42 -9 17 -10 29 -3 37 8 10 24 2 69 -33 32 -25
87 -58 122 -74z m-328 60 c6 -9 -42 -46 -50 -38 -6 6 24 48 35 48 5 0 11 -4
15 -10z m-159 -46 c24 -10 35 -24 46 -57 21 -65 -7 -136 -41 -102 -12 11 -12
17 -2 29 17 20 8 54 -24 88 -27 29 -55 28 -55 -1 0 -10 -11 -23 -25 -29 -58
-27 -3 -152 67 -152 36 0 34 -24 -3 -28 -30 -3 -119 70 -119 98 0 10 -4 22
-10 25 -16 10 -12 78 6 103 29 41 97 52 160 26z m214 -14 c0 -5 -5 -10 -11
-10 -8 0 -9 -11 -5 -32 l6 -33 -27 27 c-27 27 -27 28 -8 43 23 17 45 19 45 5z
m560 -64 c0 -11 -19 -15 -25 -6 -3 5 1 10 9 10 9 0 16 -2 16 -4z m-636 -38
l37 -33 -11 -73 c-7 -49 -7 -79 0 -92 14 -25 13 -30 -5 -24 -8 4 -15 1 -15 -5
0 -6 -19 -25 -42 -42 l-43 -30 -23 28 c-54 65 -55 69 -35 105 10 18 20 35 23
38 17 17 60 114 60 135 0 33 9 32 54 -7z m687 -34 c-33 -46 -33 -64 3 -94 9
-7 16 -17 16 -23 0 -6 -17 6 -38 26 -21 20 -43 37 -50 37 -6 0 -23 -18 -37
-40 -14 -22 -32 -40 -41 -40 -17 0 -16 3 28 67 27 41 28 44 13 72 -21 42 -19
45 14 20 l29 -21 43 32 c54 39 62 24 20 -36z m737 44 c14 -14 -2 -48 -24 -48
-20 0 -29 27 -14 45 15 18 22 19 38 3z m-1287 -105 c19 -9 56 -32 83 -51 27
-19 63 -36 80 -39 17 -3 40 -10 51 -16 11 -6 31 -12 45 -12 14 -1 38 -3 53 -3
22 -2 28 -6 25 -19 -2 -10 -10 -17 -16 -15 -7 1 -12 -2 -12 -7 0 -10 -45 -29
-81 -33 -19 -2 -33 6 -54 30 -15 17 -36 32 -47 32 -19 0 -68 45 -68 63 0 4
-11 7 -25 7 -14 0 -28 7 -32 15 -3 9 -21 22 -39 30 -19 8 -34 19 -34 24 0 16
32 13 71 -6z m209 -25 c10 -6 7 -7 -10 -2 -14 3 -32 11 -40 16 -10 6 -7 7 10
2 14 -3 32 -11 40 -16z m143 -18 c-6 -22 -7 -23 -54 -13 l-33 6 39 13 c55 16
54 17 48 -6z m157 -25 c11 -13 8 -15 -13 -15 -19 0 -25 4 -21 15 4 8 10 15 14
15 4 0 13 -7 20 -15z m-541 -145 c19 -37 104 -11 115 35 8 31 26 28 43 -5 15
-30 10 -38 -42 -61 -31 -14 -50 -16 -72 -10 -73 21 -89 44 -77 108 l8 38 9
-45 c5 -25 12 -52 16 -60z m441 64 c0 -2 -7 -22 -16 -44 -21 -52 -8 -69 28
-40 34 26 52 25 92 -5 37 -28 61 -32 69 -11 4 10 -6 23 -28 36 -32 20 -49 45
-41 59 2 3 25 5 50 3 51 -4 53 -9 40 -104 -6 -43 -7 -44 -63 -64 l-56 -20 -3
-51 c-2 -36 -8 -53 -19 -57 -9 -4 -17 -5 -18 -4 -2 2 2 27 8 57 10 48 10 54
-8 67 -10 8 -35 14 -56 14 l-36 0 -10 63 c-13 79 -5 104 36 104 17 0 31 -2 31
-3z m520 -50 c0 -9 -5 -14 -12 -12 -18 6 -21 28 -4 28 9 0 16 -7 16 -16z
m-360 -179 c0 -8 -4 -15 -10 -15 -5 0 -7 7 -4 15 4 8 8 15 10 15 2 0 4 -7 4
-15z"/>
<path d="M2562 6373 c-27 -23 -32 -56 -10 -61 21 -4 71 43 65 61 -6 19 -32 19
-55 0z"/>
<path d="M1857 5973 c-13 -12 -7 -23 13 -23 11 0 20 7 20 15 0 15 -21 21 -33
8z"/>
<path d="M1857 5689 c7 -7 15 -10 18 -7 3 3 -2 9 -12 12 -14 6 -15 5 -6 -5z"/>
<path d="M1915 4819 c-16 -10 -61 -27 -98 -36 -39 -10 -82 -29 -100 -44 -27
-23 -30 -29 -18 -43 15 -18 52 -21 79 -7 9 5 46 21 82 37 93 39 142 72 138 92
-4 23 -46 23 -83 1z"/>
<path d="M848 4673 c-26 -31 -38 -60 -38 -97 0 -28 4 -36 18 -36 40 0 72 70
58 125 -8 29 -17 31 -38 8z"/>
<path d="M1120 6799 c0 -16 80 -78 103 -79 16 0 47 42 47 65 0 24 -2 25 -75
25 -48 0 -75 -4 -75 -11z"/>
<path d="M1867 6804 c-10 -10 22 -64 38 -64 16 0 35 30 35 54 0 11 -10 16 -33
16 -19 0 -36 -3 -40 -6z"/>
<path d="M331 5934 c0 -11 3 -14 6 -6 3 7 2 16 -1 19 -3 4 -6 -2 -5 -13z"/>
<path d="M478 5638 c-51 -18 -24 -62 34 -56 24 2 33 8 33 22 0 28 -34 46 -67
34z"/>
<path d="M2669 4928 c-1 -7 -1 -16 0 -20 0 -4 -13 -21 -30 -38 -17 -17 -29
-34 -25 -37 3 -4 6 -1 6 6 0 7 4 10 9 7 4 -3 15 0 25 7 20 15 38 74 25 82 -5
4 -10 0 -10 -7z"/>
<path d="M2125 4535 c20 -48 26 -54 53 -60 13 -2 30 5 44 20 13 14 29 25 36
25 6 0 12 8 12 19 0 13 -7 19 -25 19 -15 0 -30 -8 -36 -19 -14 -27 -38 -24
-71 8 l-29 28 16 -40z"/>
<path d="M5857 7126 c101 -25 172 -94 199 -194 12 -45 13 -41 13 81 l1 127
-132 -1 c-129 -1 -131 -1 -81 -13z"/>
<path d="M3800 6762 c0 -24 108 -142 130 -142 11 0 21 13 29 39 6 22 22 50 36
63 14 12 25 31 25 41 0 15 -12 17 -110 17 -99 0 -110 -2 -110 -18z"/>
<path d="M4290 6761 c0 -19 72 -91 91 -91 23 0 128 76 128 93 1 15 -11 17
-109 17 -101 0 -110 -2 -110 -19z"/>
<path d="M4685 6763 c-8 -22 66 -93 97 -93 29 0 108 67 108 91 0 17 -8 19 -99
19 -85 0 -100 -2 -106 -17z"/>
<path d="M5057 6773 c-14 -13 -6 -24 46 -57 87 -55 85 -65 -6 -34 -102 34
-117 34 -191 -1 -48 -23 -61 -35 -70 -62 -15 -45 -45 -46 -60 -2 -8 24 -27 42
-70 68 -32 19 -63 35 -70 35 -6 0 -46 -12 -88 -26 -81 -27 -128 -56 -128 -80
0 -23 -19 -16 -50 19 -34 39 -110 83 -160 92 -22 4 -48 1 -72 -9 -21 -9 -51
-16 -68 -16 -33 0 -72 -32 -64 -53 2 -7 -2 -32 -10 -55 -8 -23 -13 -58 -10
-79 14 -108 10 -100 74 -124 66 -24 79 -43 58 -86 -18 -37 -41 -40 -101 -12
l-50 24 -53 -60 -54 -60 0 32 c0 18 -5 43 -11 57 -10 22 -8 28 17 50 34 30 52
33 50 9 -1 -13 7 -18 24 -19 14 -1 41 -3 60 -5 50 -6 50 12 1 45 -34 22 -48
27 -60 19 -15 -10 -16 -5 -2 64 15 73 15 75 -8 118 -32 60 -110 131 -157 144
-22 5 -66 13 -99 17 -56 6 -64 4 -92 -20 -31 -26 -82 -121 -104 -195 -11 -37
-10 -43 14 -73 67 -86 82 -99 127 -106 36 -6 45 -12 43 -27 -2 -29 -20 -96
-27 -103 -3 -3 -26 5 -51 17 -51 26 -72 25 -91 -4 -11 -17 -9 -29 12 -80 26
-61 28 -116 8 -213 -5 -28 -1 -38 33 -75 55 -60 103 -132 103 -156 0 -11 -24
-58 -54 -105 -41 -62 -66 -90 -98 -108 -55 -30 -61 -55 -15 -63 51 -10 108 10
190 65 41 28 79 50 83 50 5 -1 19 -16 30 -35 l22 -33 -68 -22 c-61 -20 -69
-26 -86 -61 -16 -37 -16 -42 -1 -75 14 -28 15 -40 6 -56 -8 -14 -10 -61 -7
-137 4 -91 10 -129 29 -176 28 -69 7 -64 201 -50 80 6 112 4 123 -5 11 -9 33
-10 97 -1 46 7 119 13 163 14 64 2 80 5 83 18 2 13 -9 18 -48 23 -44 6 -50 9
-50 31 0 20 -12 30 -71 60 -38 19 -78 35 -88 35 -21 0 -51 30 -51 52 0 17 46
28 122 28 42 0 48 3 54 24 3 13 4 32 2 42 -2 15 4 20 32 22 48 3 123 -11 127
-24 2 -7 -17 -14 -50 -18 -30 -4 -63 -13 -73 -21 -17 -12 -18 -16 -3 -71 l15
-59 79 0 c107 0 111 17 11 49 -31 10 -1 34 52 42 61 8 90 27 108 70 16 38 30
41 114 23 57 -12 70 -35 15 -26 -20 3 -48 1 -64 -4 -26 -9 -30 -16 -36 -65 -5
-43 -3 -61 10 -81 15 -22 22 -25 55 -20 48 6 59 -5 53 -54 -3 -23 -1 -45 6
-53 17 -20 81 -29 115 -16 27 10 27 9 21 -19 -5 -26 -3 -29 26 -35 44 -8 101
-7 117 3 11 6 7 20 -18 65 -24 43 -39 58 -63 64 -41 11 -60 4 -54 -19 8 -29
-17 -22 -36 10 -25 42 -84 91 -118 98 -25 5 -30 10 -27 32 3 24 7 26 58 29 62
4 76 12 96 60 10 24 18 32 30 28 8 -3 45 -6 80 -6 43 0 63 -4 59 -10 -4 -6
-29 -10 -57 -9 -43 2 -54 -1 -69 -20 -28 -35 -25 -93 8 -131 24 -29 30 -31 76
-28 l51 3 1 -42 c2 -58 25 -81 81 -81 24 0 44 4 44 9 0 5 17 9 37 9 l36 0 -23
-25 c-13 -14 -20 -28 -16 -32 8 -9 201 -15 392 -13 76 1 140 -3 151 -9 40 -21
43 0 43 256 l0 243 -26 10 c-14 6 -38 10 -53 10 -16 0 -46 12 -67 26 -89 61
-141 65 -116 9 17 -36 9 -31 -22 15 -31 48 -32 61 -6 85 11 10 20 13 20 8 0
-6 25 -21 55 -33 31 -12 69 -36 86 -51 35 -33 73 -37 107 -13 29 20 28 42 -3
56 -13 6 -27 20 -31 32 -3 12 -16 32 -29 46 -21 24 -46 89 -60 156 -5 27 -1
35 26 58 40 34 79 150 79 236 0 32 5 62 10 65 6 3 10 26 10 50 0 24 9 67 20
96 16 39 18 54 9 65 -18 22 -36 17 -59 -16 -12 -16 -25 -30 -30 -30 -5 0 -20
16 -34 37 l-25 36 36 29 c50 39 62 59 69 112 5 35 2 56 -15 90 -11 25 -21 50
-21 55 0 19 -81 111 -98 111 -9 0 -32 9 -50 20 -48 29 -95 14 -170 -56 -66
-61 -93 -119 -96 -207 -1 -45 2 -51 39 -85 23 -20 53 -46 69 -57 23 -17 27
-25 21 -47 -9 -34 -32 -37 -40 -5 -5 19 -17 26 -67 37 -46 10 -65 10 -79 2
-10 -7 -26 -12 -36 -12 -9 0 -25 -8 -35 -17 -17 -15 -20 -15 -47 11 l-28 27
-6 -38 c-11 -65 -8 -77 23 -95 36 -21 38 -36 6 -44 -14 -3 -27 -12 -30 -20 -8
-20 -45 -17 -53 4 -3 9 -13 25 -21 34 -18 22 -9 48 18 48 19 0 21 5 18 63 -3
55 -5 62 -25 65 -23 3 -73 -52 -73 -82 0 -11 -6 -16 -17 -14 -13 3 -18 13 -17
36 1 20 -3 32 -11 32 -7 0 -26 3 -42 6 -24 5 -31 1 -43 -20 -17 -34 -40 -34
-40 0 0 18 -5 25 -16 22 -9 -2 -20 -10 -24 -18 -34 -73 -44 -90 -50 -90 -5 0
-15 19 -24 41 -16 39 -16 43 2 78 16 31 25 37 64 42 57 9 105 33 113 58 13 41
38 34 90 -25 47 -52 54 -56 81 -50 16 5 52 10 79 13 37 4 58 12 80 34 20 19
34 26 41 19 6 -6 20 -1 39 14 28 22 29 25 17 63 -7 22 -12 68 -12 103 0 53 2
61 14 51 12 -10 18 -8 33 7 75 78 103 114 103 131 0 20 -5 21 -138 21 -76 0
-142 -3 -145 -7z m-807 -108 c37 -19 80 -101 80 -150 0 -22 -10 -51 -26 -75
-27 -40 -27 -40 -93 -40 -36 0 -86 6 -111 14 l-45 13 -3 56 c-3 50 0 58 21 72
14 9 27 29 30 45 4 20 19 36 49 54 50 30 59 31 98 11z m791 -22 c65 -59 79
-100 63 -183 -7 -32 -44 -64 -91 -76 -33 -9 -139 62 -148 99 -9 37 12 86 41
97 13 5 31 28 43 54 11 26 27 46 35 46 9 0 34 -17 57 -37z m-1315 -9 c22 -9
58 -34 82 -57 37 -37 42 -46 42 -87 0 -38 -6 -54 -33 -85 l-34 -39 -59 16
c-32 9 -71 19 -86 22 -18 4 -34 20 -51 51 l-25 44 19 66 c18 58 23 66 52 74
45 13 50 13 93 -5z m934 -8 c27 -18 40 -37 54 -81 29 -92 9 -145 -59 -160 -16
-4 -42 -11 -57 -17 -24 -9 -30 -6 -67 34 -59 61 -78 138 -41 158 11 6 20 21
20 33 0 16 11 27 38 39 52 23 72 22 112 -6z m866 -28 c56 -52 84 -104 84 -159
0 -35 -6 -47 -35 -75 -82 -77 -241 -26 -266 86 -9 38 -7 48 11 71 11 16 20 36
20 46 0 21 83 72 118 73 13 0 42 -18 68 -42z m-1032 -251 c22 -15 26 -26 26
-68 0 -61 -22 -76 -54 -37 -12 13 -35 30 -53 37 -27 11 -35 11 -55 -3 -31 -22
-38 -20 -38 8 0 16 -7 27 -20 31 -25 8 -19 19 30 50 21 13 41 33 45 44 6 19 8
18 50 -12 24 -18 55 -40 69 -50z m-240 -59 c-12 -23 -15 -48 -11 -93 7 -98
-23 -123 -78 -65 l-29 30 42 0 c47 0 57 9 37 36 -18 23 -19 96 -3 112 7 7 22
12 35 12 23 0 23 0 7 -32z m-454 -111 c0 -10 9 -21 20 -24 17 -5 15 -8 -16
-29 -42 -29 -69 -32 -59 -6 16 39 17 54 1 71 -15 16 -15 19 -1 31 8 7 15 22
15 34 1 16 6 11 20 -18 11 -22 20 -48 20 -59z m1723 72 c3 -12 -1 -36 -10 -54
-12 -26 -13 -39 -5 -64 13 -38 6 -61 -18 -61 -11 0 -22 -5 -25 -10 -9 -14 -32
5 -51 43 -14 26 -14 31 2 48 9 10 27 19 40 19 30 0 37 13 23 44 -6 13 -9 32
-6 40 9 23 44 20 50 -5z m-263 -159 c0 -20 5 -41 12 -48 6 -6 10 -37 9 -75 -2
-73 9 -111 46 -149 25 -26 26 -31 19 -100 -4 -40 -11 -77 -16 -82 -6 -6 -10
-20 -10 -33 0 -13 -10 -29 -25 -39 -17 -11 -25 -25 -25 -45 0 -29 -30 -59 -60
-59 -9 0 -24 16 -33 35 -9 19 -23 35 -30 35 -18 0 -55 51 -62 86 l-7 29 17
-30 c26 -49 78 -96 100 -93 29 4 94 122 102 185 5 43 1 60 -26 117 -23 49 -31
80 -31 121 0 57 -21 125 -39 125 -15 0 -41 -41 -41 -65 -1 -20 -1 -20 -15 -1
-21 28 -19 44 7 48 14 2 25 13 30 33 5 17 16 50 25 74 l16 44 18 -38 c11 -21
19 -55 19 -75z m-610 50 c8 -15 7 -26 -6 -45 -9 -14 -19 -25 -23 -25 -3 0 -19
16 -34 35 l-28 35 25 0 c14 0 28 5 31 10 10 16 23 12 35 -10z m-634 -144 c-6
-91 -5 -111 9 -126 9 -10 16 -36 17 -64 0 -44 3 -48 39 -67 35 -17 39 -23 39
-57 0 -21 -7 -60 -16 -86 -13 -37 -23 -50 -50 -61 -19 -8 -34 -19 -34 -24 0
-6 -4 -11 -10 -11 -5 0 -10 5 -10 11 0 6 -23 31 -51 56 -67 61 -101 128 -89
174 10 36 53 89 72 89 6 0 2 -10 -9 -22 -29 -33 -43 -63 -43 -95 0 -63 97
-156 139 -133 49 25 54 88 12 135 -15 18 -32 50 -36 71 -8 47 -21 65 -41 57
-17 -6 -19 29 -3 59 8 16 8 31 -2 60 -9 30 -10 44 -2 58 7 9 15 35 18 56 11
67 13 69 36 48 20 -18 21 -25 15 -128z m384 73 c0 -24 6 -32 30 -40 17 -6 30
-17 30 -25 0 -8 -13 -17 -30 -20 -16 -4 -30 -10 -30 -15 0 -5 -4 -9 -9 -9 -5
0 -16 23 -25 52 -14 48 -14 54 1 70 23 26 33 22 33 -13z m365 -9 c3 -5 15 -10
25 -10 25 0 31 -12 24 -49 l-6 -31 -26 20 c-13 11 -31 20 -38 20 -16 0 -16 5
-8 38 7 23 19 29 29 12z m-509 -46 c38 -18 54 -31 54 -45 0 -22 -21 -25 -50
-7 -15 9 -30 9 -72 -1 -29 -8 -59 -18 -65 -24 -7 -5 -13 -8 -14 -6 -8 37 -2
60 16 65 11 4 28 15 38 25 23 24 28 24 93 -7z m-422 -20 c52 -42 55 -56 5 -25
-43 27 -61 26 -145 -3 -38 -13 -72 -22 -77 -19 -15 9 35 58 71 69 67 21 95 17
146 -22z m759 11 c45 -7 49 -25 6 -25 -17 0 -46 -7 -64 -16 -19 -9 -41 -14
-51 -12 -15 3 -13 7 10 35 15 18 33 30 44 28 9 -2 34 -7 55 -10z m431 -3 c38
-6 51 -12 57 -29 10 -26 5 -27 -54 -12 -46 11 -101 -4 -128 -37 -13 -16 -12
-17 11 -10 87 27 119 9 130 -71 5 -43 3 -55 -16 -78 -17 -22 -25 -25 -39 -17
-17 9 -17 10 3 21 29 16 35 44 18 85 -30 71 -106 29 -93 -51 6 -36 6 -36 -10
-14 -8 13 -20 59 -26 102 -14 117 2 130 147 111z m469 2 c3 -3 -20 -19 -50
-35 -31 -16 -58 -27 -61 -25 -2 3 6 19 18 35 16 24 29 31 54 31 18 0 35 -3 39
-6z m-865 -70 c19 -13 22 -24 22 -89 l0 -73 -31 -7 c-41 -9 -78 18 -96 70 -17
50 -7 76 38 98 42 20 40 20 67 1z m-812 -2 c7 -4 17 -26 24 -48 16 -53 -1 -91
-51 -118 -67 -36 -119 -4 -119 75 0 67 30 99 92 99 24 0 48 -4 54 -8z m1738
-22 c15 -14 17 -26 12 -55 l-7 -36 -30 40 c-23 32 -36 41 -59 41 -66 0 -78
-89 -15 -119 26 -13 33 -12 68 8 26 15 38 18 35 9 -2 -7 -20 -21 -39 -30 -28
-14 -41 -15 -76 -6 -37 9 -43 15 -49 43 -3 17 -1 50 5 72 9 33 17 42 43 50 42
13 88 6 112 -17z m-1280 -31 c8 -49 -8 -106 -32 -113 -9 -2 -33 -7 -52 -10
-34 -6 -37 -4 -48 27 -30 84 2 136 84 137 41 0 42 -1 48 -41z m886 24 c-1 -13
-29 -59 -30 -48 0 21 13 55 21 55 5 0 9 -3 9 -7z m-755 -49 c0 -11 12 -24 28
-32 20 -10 38 -34 57 -74 28 -59 29 -62 13 -97 -9 -20 -24 -61 -35 -92 -13
-40 -26 -60 -44 -68 -36 -16 -74 -4 -74 24 0 12 -9 30 -20 40 -11 10 -20 25
-20 33 0 9 -9 25 -20 37 -28 29 -16 94 19 107 23 8 23 8 7 -17 -22 -33 -20
-73 7 -119 45 -80 77 -74 115 19 27 68 24 109 -13 149 -30 32 -48 33 -76 4
l-21 -23 16 32 c9 18 16 36 16 42 0 5 5 22 10 36 11 30 35 29 35 -1z m417 -48
c4 -6 8 -19 8 -29 0 -10 9 -30 21 -46 34 -46 36 -102 5 -157 -14 -25 -26 -55
-26 -65 0 -19 -25 -25 -46 -11 -5 4 -25 33 -43 66 -24 43 -34 75 -38 126 -5
64 -4 70 23 104 25 32 33 36 59 30 17 -4 33 -12 37 -18z m291 -26 c-3 -11 -7
-20 -9 -20 -2 0 -4 9 -4 20 0 11 4 20 9 20 5 0 7 -9 4 -20z m-27 -72 l-11 -43
-3 34 c-3 27 7 49 24 51 1 0 -4 -19 -10 -42z m384 -29 c0 -23 5 -32 21 -36 22
-6 79 -109 79 -143 0 -20 -4 -18 -42 14 -23 20 -45 36 -49 36 -4 0 -10 11 -13
25 -4 14 -17 32 -31 41 -41 27 -29 94 17 94 13 0 18 -8 18 -31z m-1678 4 c8
-10 27 -39 41 -65 15 -25 41 -58 59 -71 32 -25 46 -67 22 -67 -20 0 -44 11
-44 21 0 6 -9 19 -19 31 -11 11 -33 45 -48 74 -18 34 -35 54 -45 54 -20 0 -21
2 -12 24 8 21 27 20 46 -1z m849 -48 c3 -22 13 -54 22 -72 19 -36 23 -68 7
-58 -6 4 -22 29 -36 57 -14 28 -34 53 -45 55 -22 6 -22 4 -9 38 7 20 16 26 33
23 17 -2 23 -11 28 -43z m356 24 c-8 -32 20 -95 49 -107 31 -15 35 -62 4 -62
-14 0 -20 7 -20 21 0 11 -16 35 -35 52 -30 26 -35 37 -35 74 0 37 3 43 21 43
17 0 20 -5 16 -21z m-752 -77 c20 -43 26 -65 18 -73 -15 -15 -50 49 -58 108
-9 58 1 50 40 -35z m1141 -41 c-9 -10 -16 -23 -16 -29 0 -7 -4 -12 -10 -12
-11 0 -14 63 -4 73 4 3 15 2 26 -4 18 -10 18 -12 4 -28z m-766 -41 c26 -52 25
-68 -5 -82 -14 -6 -27 -21 -30 -32 -2 -12 -8 -46 -13 -76 -9 -50 -9 -51 -11
-17 0 21 -13 58 -27 82 -17 30 -23 51 -19 66 6 19 72 99 81 99 2 0 13 -18 24
-40z m-415 -32 c5 -20 3 -28 -6 -28 -14 0 -59 -97 -59 -125 0 -18 -16 -20 -26
-3 -4 6 -9 36 -10 66 -3 53 -2 56 39 93 45 40 52 40 62 -3z m808 8 c38 -35 48
-70 22 -80 -8 -3 -15 -12 -15 -21 0 -8 -7 -15 -17 -15 -9 0 -13 3 -10 6 12 13
-13 43 -42 49 l-30 6 21 45 c12 24 25 44 28 44 3 0 23 -15 43 -34z m-1116 -65
c-3 -14 -10 -42 -15 -61 -10 -35 -10 -35 -11 17 -1 28 2 58 5 67 10 25 26 6
21 -23z m443 -57 c0 -30 -4 -54 -10 -54 -6 0 -10 27 -10 61 0 37 4 58 10 54 6
-3 10 -31 10 -61z m460 26 c0 -20 -5 -30 -15 -30 -10 0 -15 10 -15 30 0 20 5
30 15 30 10 0 15 -10 15 -30z m472 -7 c5 -24 -18 -112 -25 -93 -12 36 -24 99
-19 105 12 12 40 4 44 -12z m274 -70 c51 -8 71 -18 85 -46 11 -20 11 -21 -5
-8 -10 8 -42 20 -73 26 -46 9 -58 16 -76 45 l-21 35 26 -23 c14 -12 43 -25 64
-29z m-526 -13 c0 -16 -4 -30 -10 -30 -5 0 -10 14 -10 30 0 17 5 30 10 30 6 0
10 -13 10 -30z m-1050 -55 c14 -8 51 -14 83 -15 42 0 59 -4 64 -15 10 -27 5
-29 -115 -34 -31 -1 -43 -38 -30 -90 10 -39 13 -42 67 -57 81 -23 86 -27 86
-65 l0 -34 -71 -3 c-71 -3 -72 -3 -82 27 -16 44 -45 48 -89 12 -53 -44 -124
-42 -107 3 3 9 21 16 47 18 56 4 57 22 2 48 -30 14 -45 28 -45 41 0 16 7 19
44 19 49 0 71 18 61 50 -5 17 -15 20 -61 20 -52 0 -55 2 -52 23 2 18 11 23 48
27 25 3 56 13 70 23 29 20 47 21 80 2z m1223 -32 c4 -2 7 -9 7 -14 0 -6 -4 -8
-8 -5 -16 10 -107 -32 -126 -58 -24 -32 -14 -69 24 -97 45 -31 180 -5 146 28
-3 4 -24 9 -47 12 -59 9 -47 26 18 26 l56 0 15 43 c9 29 25 50 46 63 33 20
101 26 111 9 4 -6 -10 -10 -35 -10 -54 0 -75 -12 -89 -51 -17 -50 -13 -91 12
-123 23 -29 24 -29 68 -14 31 10 48 23 60 45 15 29 16 30 25 9 5 -11 31 -32
58 -46 27 -14 56 -36 64 -50 13 -22 11 -22 -13 4 -55 60 -178 46 -159 -17 10
-37 34 -47 108 -47 65 -1 69 -2 52 -15 -24 -18 -90 -19 -150 -3 -38 10 -48 9
-70 -5 -50 -33 -103 -17 -159 48 -16 18 -30 26 -34 20 -5 -5 -24 -11 -43 -13
-31 -2 -37 1 -46 26 -13 34 -92 90 -143 100 -32 7 -36 12 -36 37 0 42 37 46
75 10 l28 -27 7 24 c4 12 18 43 32 67 l25 43 57 -7 c31 -4 59 -9 64 -12z m427
2 c-7 -8 -19 -15 -28 -15 -24 0 -100 -48 -106 -68 -4 -13 -16 -17 -48 -16 -61
2 -68 3 -68 13 0 5 30 14 68 21 55 11 72 19 97 46 23 26 38 34 64 34 29 0 32
-2 21 -15z"/>
<path d="M4146 6561 c-20 -22 -16 -46 15 -85 35 -44 101 -30 114 24 14 60 -87
107 -129 61z"/>
<path d="M4973 6563 c-19 -4 -23 -11 -23 -39 0 -43 29 -75 62 -67 29 8 38 21
38 55 0 24 -33 61 -50 57 -3 -1 -15 -4 -27 -6z"/>
<path d="M3654 6571 c-43 -27 -47 -35 -30 -74 10 -26 21 -35 43 -39 80 -11
135 48 94 102 -23 32 -67 36 -107 11z"/>
<path d="M3747 6452 c-21 -23 -21 -32 -3 -32 16 0 46 26 46 41 0 15 -26 10
-43 -9z"/>
<path d="M4562 6540 c-26 -25 -27 -33 -6 -65 16 -25 66 -34 89 -17 34 25 36
39 9 71 -30 36 -61 40 -92 11z"/>
<path d="M5410 6579 c0 -5 5 -7 10 -4 6 3 10 8 10 11 0 2 -4 4 -10 4 -5 0 -10
-5 -10 -11z"/>
<path d="M5440 6538 c-49 -14 -60 -26 -60 -64 0 -25 7 -38 29 -53 29 -21 85
-28 109 -13 12 8 32 64 32 90 0 11 -57 53 -70 51 -3 0 -21 -5 -40 -11z"/>
<path d="M4352 6347 c-18 -21 3 -39 52 -44 52 -6 59 4 24 37 -25 23 -60 26
-76 7z"/>
<path d="M4566 5878 c-22 -30 -20 -41 9 -68 20 -19 27 -21 40 -10 18 15 20 71
3 88 -18 18 -35 15 -52 -10z"/>
<path d="M3718 5890 c-36 -28 -41 -67 -13 -96 16 -16 30 -21 46 -17 38 9 69
43 69 76 0 54 -56 74 -102 37z"/>
<path d="M4170 5860 c-23 -43 20 -92 60 -70 25 13 28 75 4 84 -29 11 -53 6
-64 -14z"/>
<path d="M4725 5763 c-33 -33 -1 -183 42 -200 10 -4 25 4 41 22 20 24 23 36
19 72 -5 48 -49 123 -71 123 -8 0 -22 -8 -31 -17z"/>
<path d="M5257 4993 c-12 -12 -12 -19 2 -48 10 -21 25 -35 41 -38 29 -6 90 3
90 12 0 15 -27 39 -72 63 -40 22 -48 24 -61 11z"/>
<path d="M5505 6772 c-12 -12 -3 -29 25 -46 26 -15 81 -76 140 -154 11 -15 20
-18 30 -12 12 7 12 18 2 67 -14 66 -36 102 -78 122 -32 16 -111 31 -119 23z"/>
<path d="M4754 6349 c-16 -17 -16 -22 -4 -29 8 -6 30 -10 48 -10 24 0 32 4 32
18 0 42 -45 55 -76 21z"/>
<path d="M5113 6340 c-59 -36 -32 -52 50 -29 28 7 37 15 35 27 -5 25 -48 26
-85 2z"/>
<path d="M5671 5829 c-7 -16 -31 -53 -52 -82 -35 -45 -39 -57 -34 -87 14 -75
84 -162 112 -138 18 15 18 296 0 320 -12 15 -14 13 -26 -13z"/>
<path d="M4454 5075 c-8 -20 5 -46 26 -53 10 -4 11 3 6 24 -10 39 -24 52 -32
29z"/>
<path d="M4720 5082 c0 -5 7 -16 16 -23 14 -12 16 -11 13 5 -4 20 -29 35 -29
18z"/>
<path d="M4387 4973 c-12 -12 -7 -40 11 -62 12 -15 31 -22 64 -25 41 -3 49 0
55 18 6 19 7 18 13 -9 5 -28 9 -30 53 -33 26 -2 47 -1 47 2 0 11 -35 82 -49
99 -22 27 -51 22 -51 -10 l0 -27 -28 27 c-21 20 -38 27 -68 27 -23 0 -44 -3
-47 -7z"/>
<path d="M3463 4824 c-16 -7 -27 -66 -19 -98 4 -15 25 -36 56 -55 27 -17 50
-34 50 -37 0 -3 -11 -19 -25 -36 -24 -28 -24 -30 -7 -53 10 -13 32 -26 52 -29
19 -3 490 -6 1046 -6 950 0 1012 1 1026 18 42 47 60 141 37 199 -6 15 -11 40
-11 56 l1 27 -945 0 c-623 0 -944 -3 -944 -10 0 -5 5 -10 10 -10 6 0 10 -6 10
-14 0 -7 11 -21 26 -30 49 -33 47 -95 -5 -144 -36 -33 -55 -25 -59 26 -3 39
-5 42 -33 42 -27 0 -29 2 -29 40 0 38 2 40 30 40 34 0 40 15 10 23 -12 3 -18
11 -15 20 5 11 -10 15 -77 20 -46 4 -103 9 -128 12 -25 2 -50 2 -57 -1z m156
-43 c9 -6 11 -18 7 -35 -7 -30 -26 -35 -26 -7 0 11 -5 23 -10 26 -6 4 -8 11
-5 16 8 11 16 11 34 0z m720 -28 c32 -28 38 -57 22 -112 -13 -46 -131 -88
-131 -46 0 7 20 20 45 29 39 15 45 21 45 47 0 32 -19 39 -40 14 -19 -23 -50
-19 -50 7 0 19 53 83 71 87 4 0 21 -11 38 -26z m946 -13 c8 0 17 -12 21 -27 3
-16 8 -34 10 -41 6 -21 -13 -50 -54 -77 -44 -30 -52 -31 -52 -7 0 10 12 25 26
33 39 20 61 89 29 89 -9 0 -27 -7 -41 -16 -28 -19 -29 -18 -39 14 -5 19 -2 24
24 33 18 6 31 18 31 27 0 13 4 11 16 -6 8 -12 22 -22 29 -22z m-1158 -37 c-2
-35 -27 -62 -27 -29 0 8 -10 20 -21 27 -21 11 -21 11 7 29 37 22 44 18 41 -27z
m1478 33 c32 -14 35 -19 35 -55 0 -56 -7 -68 -56 -102 -51 -35 -57 -23 -18 34
29 44 37 93 14 90 -8 -1 -25 -5 -37 -9 -28 -8 -32 16 -7 40 19 20 26 20 69 2z
m-816 -11 c34 -17 43 -37 35 -73 -9 -36 -23 -52 -45 -52 -10 0 -24 -9 -31 -20
-14 -22 -33 -26 -44 -9 -3 6 11 28 31 49 24 25 35 44 32 54 -7 18 -23 21 -32
6 -3 -5 -15 -10 -26 -10 -14 0 -19 7 -19 25 0 19 7 26 33 34 17 5 33 10 35 10
2 1 16 -6 31 -14z m311 -9 c0 -8 -4 -17 -9 -20 -10 -7 -23 19 -14 28 11 11 23
6 23 -8z m-490 -12 c0 -8 -5 -12 -10 -9 -6 4 -8 11 -5 16 9 14 15 11 15 -7z
m-455 -125 c-6 -19 -9 -20 -16 -6 -11 20 0 52 13 39 6 -6 7 -20 3 -33z m441
-5 c-5 -13 -10 -14 -18 -6 -6 6 -8 18 -4 28 5 13 10 14 18 6 6 -6 8 -18 4 -28z"/>
<path d="M3815 4431 c-164 -5 -196 -9 -235 -27 l-45 -21 40 -10 c22 -6 69 -19
105 -29 61 -17 131 -18 1060 -18 l995 -1 0 55 0 55 -865 1 c-476 0 -950 -2
-1055 -5z"/>
<path d="M5183 3664 c-3 -8 2 -77 11 -152 13 -100 24 -149 41 -182 32 -61 38
-87 23 -96 -7 -4 -14 -2 -16 7 -7 22 -151 163 -159 156 -3 -4 -5 -42 -4 -84 2
-68 7 -86 39 -146 20 -37 48 -75 61 -84 66 -43 111 -97 127 -150 8 -29 14 -59
12 -65 -2 -6 -28 17 -58 53 -56 67 -116 109 -156 109 -29 0 -29 -1 -3 -75 29
-84 62 -138 109 -177 33 -27 42 -42 50 -87 5 -29 7 -57 4 -62 -10 -17 -22 -9
-35 24 -7 17 -29 48 -48 67 -20 20 -44 46 -54 58 -35 45 -40 19 -33 -167 6
-141 11 -185 26 -219 21 -47 18 -63 -19 -96 -11 -10 -30 -49 -42 -87 l-21 -68
26 -45 c14 -24 26 -47 26 -50 0 -3 -20 -6 -44 -6 -53 0 -67 14 -74 75 -8 79
-16 74 -93 -55 -43 -72 -53 -97 -62 -162 -7 -53 -15 -78 -24 -78 -7 0 -13 11
-13 26 0 53 -24 154 -36 154 -13 0 -120 -177 -130 -215 -10 -40 -54 -24 -54
19 0 36 -58 -32 -82 -97 -15 -43 -29 -62 -50 -73 -18 -9 -37 -33 -50 -62 -15
-33 -22 -42 -25 -29 -3 10 1 24 7 32 14 17 3 58 -13 52 -6 -2 -25 -22 -42 -45
-16 -23 -49 -55 -71 -71 -23 -16 -56 -50 -74 -75 -19 -25 -41 -46 -51 -46 -10
0 -53 -18 -95 -40 -68 -35 -114 -49 -114 -35 0 2 9 27 20 55 11 28 20 55 20
60 0 22 -31 7 -102 -48 -42 -32 -94 -64 -117 -72 -55 -18 -117 -87 -126 -141
-7 -38 -18 -49 -30 -30 -7 12 41 145 55 149 5 2 10 14 10 26 0 12 7 31 15 42
8 10 15 25 15 33 0 8 7 23 17 33 41 45 -22 31 -76 -17 -20 -18 -64 -44 -99
-58 l-63 -26 -10 25 c-5 14 -10 43 -11 65 -1 32 -5 39 -22 39 -26 0 -146 -115
-146 -140 0 -9 -9 -25 -20 -35 -16 -14 -23 -15 -34 -6 -25 21 -33 5 -47 -84
l-12 -86 -66 3 -66 3 -3 80 c-2 44 -7 84 -11 88 -5 5 -24 -5 -44 -22 -30 -27
-38 -30 -62 -21 -24 9 -31 38 -7 33 13 -3 -9 82 -34 134 -25 51 -56 55 -99 13
-19 -18 -36 -47 -40 -66 -3 -19 -12 -34 -19 -34 -14 0 -116 69 -154 103 -33
30 -42 13 -44 -82 l-2 -82 -72 73 c-79 82 -148 122 -165 97 -14 -21 -2 -114
21 -159 28 -55 10 -57 -30 -3 -19 26 -52 55 -72 65 -34 18 -68 52 -140 136
-47 57 -55 43 -38 -63 11 -67 2 -146 -18 -153 -6 -2 -12 4 -12 12 0 9 -11 21
-24 26 -26 10 -42 28 -32 37 3 4 15 -2 25 -11 52 -47 46 38 -8 125 -30 48 -46
62 -95 86 -37 18 -75 46 -102 78 -28 31 -47 46 -53 40 -12 -13 -17 -117 -7
-134 5 -7 3 -18 -3 -24 -18 -18 -27 5 -30 75 -4 111 -51 248 -100 292 -20 18
-20 18 -30 -5 -13 -30 -41 -229 -41 -286 0 -23 -4 -44 -9 -47 -12 -8 -23 115
-15 174 4 33 3 55 -6 65 -6 8 -9 26 -6 42 9 43 -59 165 -99 178 -34 11 -51 29
-60 64 -3 13 -29 52 -58 87 -84 102 -111 97 -100 -18 6 -73 5 -75 -51 -80 -47
-5 -55 22 -22 71 24 35 29 50 29 108 l-1 67 -51 48 c-28 26 -51 54 -51 62 0 8
14 42 30 75 29 56 30 62 22 137 -5 43 -5 96 -1 118 4 23 4 45 0 49 -10 10
-109 -56 -138 -91 -28 -35 -39 -22 -25 27 10 33 22 44 79 77 66 38 108 84 119
131 9 33 -5 113 -19 113 -7 0 -45 -27 -85 -60 -65 -53 -92 -69 -92 -56 0 25
38 81 68 100 50 32 70 56 132 156 57 92 70 145 35 145 -11 0 -30 -16 -45 -38
-28 -42 -99 -87 -135 -87 -13 0 -31 -7 -39 -16 -36 -36 -49 22 -17 78 10 18
29 62 42 98 12 36 31 72 41 81 14 10 22 36 28 85 5 38 12 88 16 112 8 50 0 52
-61 16 -58 -34 -106 -88 -139 -158 -26 -54 -27 -65 -24 -178 3 -110 1 -121
-17 -134 -17 -13 -20 -13 -27 3 -3 10 -7 29 -7 43 -2 38 -45 121 -80 154 -17
16 -33 27 -36 25 -8 -9 -25 -142 -25 -203 0 -84 19 -185 42 -223 19 -32 19
-33 1 -33 -11 0 -30 11 -43 25 -60 64 -65 -7 -12 -165 18 -54 123 -160 159
-160 27 0 52 -38 32 -50 -21 -14 -111 29 -149 70 -35 38 -97 73 -112 64 -4 -3
0 -23 8 -45 26 -75 104 -191 180 -266 41 -41 74 -81 74 -89 0 -7 -10 -34 -22
-58 -21 -45 -21 -45 -3 -107 11 -34 33 -79 51 -100 22 -26 30 -45 27 -62 -3
-16 13 -50 58 -118 67 -101 74 -109 131 -139 21 -11 38 -24 38 -29 0 -5 -28
-13 -63 -18 -89 -12 -85 -32 19 -94 74 -44 89 -50 168 -58 68 -7 92 -13 111
-31 22 -20 25 -21 54 -6 28 15 31 15 41 -3 9 -18 6 -21 -27 -30 -21 -6 -58
-11 -83 -12 -25 0 -63 -4 -85 -8 l-40 -7 45 -23 c24 -13 106 -47 180 -76 95
-36 160 -69 216 -107 88 -62 148 -83 267 -93 104 -9 100 -32 -12 -56 -46 -10
-70 -24 -59 -34 9 -10 220 -46 300 -52 l87 -6 -46 -41 c-25 -22 -67 -47 -92
-56 -63 -21 -65 -44 -7 -59 25 -6 70 -11 100 -11 31 0 56 -4 56 -8 0 -5 -18
-18 -40 -31 -38 -21 -52 -41 -29 -41 5 0 7 6 3 13 -5 8 -2 7 9 -2 12 -9 56
-15 132 -19 106 -4 114 -6 105 -23 -15 -27 -12 -37 13 -41 12 -2 21 -9 19 -16
-1 -7 2 -22 8 -32 10 -19 13 -18 68 17 31 20 89 64 127 98 82 70 206 155 228
155 9 0 37 11 63 25 26 14 53 25 60 25 22 0 27 -21 9 -34 -12 -9 -16 -21 -13
-40 5 -24 -5 -34 -114 -114 -193 -140 -233 -172 -215 -172 9 0 17 -4 17 -10 0
-21 23 -9 73 39 29 26 68 56 87 66 19 9 72 44 117 76 45 33 86 59 91 59 5 0
23 -7 38 -15 51 -26 136 -13 106 17 -25 25 -14 39 26 32 125 -23 379 -183 396
-249 3 -12 28 -42 55 -68 37 -35 65 -50 118 -66 86 -26 93 -26 93 -1 0 25 24
17 38 -13 10 -22 10 -22 22 4 12 25 10 29 -31 65 -24 22 -53 50 -66 63 l-22
23 8 -30 c13 -44 0 -56 -64 -58 -53 -2 -57 0 -91 39 -24 29 -33 48 -30 63 5
17 -10 35 -75 90 -44 38 -107 83 -139 99 -70 36 -130 88 -130 114 0 37 26 46
83 28 29 -9 70 -21 92 -27 28 -6 57 -26 95 -65 30 -31 77 -70 103 -87 26 -17
59 -49 72 -72 13 -22 33 -47 45 -54 22 -14 25 -10 10 19 -8 13 -7 19 0 19 7 0
8 6 0 19 -5 11 -10 22 -10 26 0 3 46 3 103 -1 101 -6 102 -6 112 17 8 20 20
25 67 30 63 7 133 38 133 60 0 8 -22 26 -49 40 -78 42 -85 73 -19 85 43 8 253
78 284 94 32 18 11 29 -70 36 -58 6 -79 12 -100 31 l-26 24 26 -5 c14 -3 72
-13 128 -22 94 -15 107 -15 175 1 41 9 80 23 86 31 7 8 30 14 54 14 48 0 52 3
88 51 28 38 97 71 172 84 33 5 40 12 54 46 8 21 20 39 27 39 26 0 113 52 118
70 7 29 -6 33 -68 20 -48 -10 -58 -9 -92 10 -21 11 -60 30 -88 42 -54 23 -40
39 17 19 42 -15 102 -14 194 4 67 13 109 24 224 61 12 4 12 6 1 14 -8 4 -11
15 -8 23 9 23 -3 28 -34 12 -51 -27 -149 -16 -149 16 0 16 98 124 132 146 7 4
30 33 51 64 20 30 48 66 62 79 22 21 36 67 17 58 -48 -21 -103 -40 -107 -36
-3 2 -6 15 -7 28 -2 19 3 26 29 33 56 17 109 75 128 141 17 57 17 61 -1 94
l-18 34 92 89 c58 56 94 99 97 116 3 15 19 64 36 109 30 84 36 119 20 128 -5
4 -58 -30 -117 -74 -59 -43 -111 -77 -116 -74 -11 7 -3 43 23 105 14 31 37 58
70 84 28 21 68 64 90 96 21 32 43 61 49 64 6 3 17 20 26 37 28 54 1 54 -61 -1
-57 -50 -104 -66 -120 -41 -3 5 12 39 34 76 23 38 47 96 57 137 16 69 22 203
8 216 -11 11 -53 -51 -111 -162 -31 -59 -61 -106 -67 -104 -6 3 -9 11 -6 18
16 48 -11 308 -42 399 -39 114 -115 195 -135 144z m128 -427 c-8 -8 -11 2 -10
39 l1 49 10 -38 c7 -28 7 -42 -1 -50z m-4513 -140 c-10 -20 -11 -20 -24 -2
-10 13 -11 23 -2 38 10 20 11 20 24 2 10 -13 11 -23 2 -38z m-86 -113 c-5 -58
-22 -39 -22 25 0 34 3 41 13 33 8 -7 11 -28 9 -58z m179 -197 c-29 -30 -39
-12 -10 19 14 15 25 20 27 14 3 -7 -5 -21 -17 -33z m4429 -108 c0 -5 -4 -9
-10 -9 -5 0 -10 7 -10 16 0 8 5 12 10 9 6 -3 10 -10 10 -16z m-4514 -20 c3 -5
1 -9 -5 -9 -17 0 -41 12 -41 20 0 10 38 1 46 -11z m4379 -70 c0 -24 -5 -34
-15 -34 -16 0 -25 37 -16 62 10 26 31 8 31 -28z m-4395 -7 c0 -28 -15 -60 -24
-52 -3 3 -2 24 1 47 6 46 23 49 23 5z m190 -7 c0 -9 -9 -15 -24 -15 -19 0 -25
-6 -30 -35 -3 -19 -9 -51 -12 -70 -8 -47 -24 -55 -24 -11 0 19 -3 41 -6 49 -3
8 2 21 10 30 9 9 16 27 16 41 0 23 4 26 35 26 24 0 35 -5 35 -15z m4327 -31
c-9 -9 -28 6 -21 18 4 6 10 6 17 -1 6 -6 8 -13 4 -17z m9 -51 c-3 -8 -6 -17
-6 -19 0 -3 -4 -2 -10 1 -17 11 -12 45 6 38 8 -3 13 -12 10 -20z m-4594 -93
c50 -66 55 -79 19 -45 -30 28 -61 74 -61 91 0 9 1 8 42 -46z m282 -130 c9 -28
14 -55 11 -60 -7 -12 -86 17 -102 38 -20 24 -16 30 30 51 23 11 43 20 43 20 1
1 9 -22 18 -49z m4236 15 c0 -3 -23 -16 -52 -30 -52 -25 -88 -32 -88 -17 0 15
47 53 76 61 26 7 64 -1 64 -14z m-4401 -57 c-14 -50 -50 -64 -69 -27 -15 27
12 59 51 59 26 0 27 -2 18 -32z m4509 -11 c3 -25 1 -27 -32 -27 -40 0 -43 5
-20 38 21 30 48 24 52 -11z m-4349 -34 c-3 -20 2 -24 15 -14 12 10 17 8 26 -8
11 -22 0 -58 -24 -73 -30 -21 -106 5 -106 36 0 8 14 16 30 20 17 3 30 12 30
20 0 12 8 19 28 25 1 1 1 -2 1 -6z m4167 -19 c8 -31 -25 -70 -50 -61 -26 10
-36 49 -18 70 24 27 60 22 68 -9z m124 -42 c0 -16 -24 -32 -47 -32 -27 0 -30
21 -7 44 12 12 20 13 35 6 10 -6 19 -14 19 -18z m-4437 -27 c56 -53 60 -69 15
-60 -45 10 -48 13 -64 51 -28 68 -16 70 49 9z m358 -83 c6 -21 18 -46 25 -57
20 -28 17 -53 -6 -65 -11 -6 -20 -20 -20 -30 0 -13 -7 -20 -20 -20 -19 0 -20
7 -20 110 0 91 2 108 15 104 8 -3 19 -22 26 -42z m3821 -28 c-25 -19 -32 -17
-32 9 0 33 9 38 30 19 18 -15 18 -16 2 -28z m104 9 c-7 -7 -26 7 -26 19 0 6 6
6 15 -2 9 -7 13 -15 11 -17z m-4170 -40 c49 -41 55 -58 23 -68 -37 -12 -100
15 -150 64 -14 15 -13 17 10 28 44 20 70 14 117 -24z m3964 -18 c0 -34 -4 -45
-16 -45 -8 0 -12 5 -9 10 4 6 -7 16 -24 23 -34 14 -31 27 5 27 12 0 24 7 28
15 10 27 16 16 16 -30z m-224 -87 c-3 -24 -5 -52 -5 -62 -1 -14 -4 -17 -12 -9
-12 12 -1 113 13 113 5 0 7 -19 4 -42z m-3337 -49 c10 -56 1 -83 -20 -62 -14
14 -24 96 -15 119 11 28 26 3 35 -57z m3431 -10 c0 -5 -4 -9 -10 -9 -5 0 -10
7 -10 16 0 8 5 12 10 9 6 -3 10 -10 10 -16z m-3510 -75 c25 -66 5 -90 -71 -82
-26 2 -34 8 -34 23 0 13 8 21 23 23 13 2 26 11 29 20 17 47 39 54 53 16z m280
-91 c0 -52 0 -53 -30 -53 -28 0 -30 2 -30 39 0 45 37 102 51 79 5 -7 9 -37 9
-65z m3430 -33 c0 -5 -11 -10 -25 -10 -14 0 -25 -4 -25 -10 0 -5 -9 -10 -20
-10 -13 0 -20 7 -20 20 0 17 7 20 45 20 25 0 45 -4 45 -10z m-316 -15 c3 -9 0
-15 -8 -15 -24 0 -46 12 -40 21 9 14 41 10 48 -6z m-94 -75 c0 -5 -5 -10 -11
-10 -5 0 -7 5 -4 10 3 6 8 10 11 10 2 0 4 -4 4 -10z m-2880 -63 c0 -5 -4 -5
-10 -2 -5 3 -10 14 -10 23 0 15 2 15 10 2 5 -8 10 -19 10 -23z m2523 -35 c-16
-20 -35 -38 -41 -40 -25 -8 -11 29 26 69 29 33 38 38 40 24 2 -9 -9 -33 -25
-53z m-2369 42 c4 -9 4 -19 1 -22 -6 -6 -35 18 -35 29 0 16 28 10 34 -7z
m3046 -94 c0 -5 -13 -10 -28 -10 -15 0 -33 -5 -40 -12 -14 -14 -67 6 -57 22 8
13 125 13 125 0z m-3227 -11 c27 -14 37 -28 37 -51 0 -16 -10 -18 -82 -17 -86
0 -157 17 -148 34 3 6 26 10 52 10 31 0 53 6 65 18 20 20 45 22 76 6z m705
-77 c-5 -28 -26 -24 -42 9 -23 47 -20 53 15 29 16 -12 29 -29 27 -38z m-224
32 c11 -28 6 -54 -9 -54 -8 0 -15 7 -15 15 0 7 -7 18 -16 23 -9 5 -14 14 -10
21 10 16 43 13 50 -5z m1590 -26 c-7 -11 -44 -10 -44 2 0 16 34 30 42 17 4 -6
4 -15 2 -19z m-894 12 c0 -5 -4 -10 -10 -10 -5 0 -10 5 -10 10 0 6 5 10 10 10
6 0 10 -4 10 -10z m1270 -5 c0 -21 -57 -112 -75 -118 -24 -10 -23 17 3 63 14
25 30 51 35 58 13 17 37 15 37 -3z m-1485 -36 c30 -26 35 -38 35 -73 0 -23 5
-47 12 -54 6 -6 8 -15 4 -19 -4 -5 -15 2 -25 15 -9 13 -28 38 -43 56 -31 37
-47 75 -41 94 7 19 19 15 58 -19z m1965 2 c0 -5 8 -11 18 -14 10 -2 2 -7 -20
-11 -46 -10 -88 -1 -88 19 0 11 12 15 45 15 25 0 45 -4 45 -9z m-2268 -72 c24
-18 17 -39 -13 -39 -16 0 -19 7 -18 48 1 26 3 38 6 27 3 -11 14 -27 25 -36z
m1168 1 c0 -11 -6 -20 -13 -20 -19 0 -27 10 -20 26 8 21 33 17 33 -6z m-575
-116 c-38 -59 -45 -6 -8 73 l17 38 4 -43 c2 -28 -2 -52 -13 -68z m-645 42 c0
-14 -4 -27 -8 -30 -16 -10 -52 6 -52 23 0 24 9 31 37 31 18 0 23 -6 23 -24z
m1278 -28 c4 -32 -17 -38 -42 -12 -26 26 -17 47 19 42 13 -2 21 -12 23 -30z
m-1434 16 c26 -10 18 -24 -13 -24 -17 0 -33 -4 -36 -10 -9 -15 -68 -12 -106 5
l-34 14 47 1 c26 0 50 5 53 10 7 11 64 14 89 4z m199 -8 c3 -8 15 -12 29 -9
14 3 29 -2 37 -11 7 -8 20 -12 29 -10 11 4 10 1 -3 -7 -11 -7 -23 -17 -28 -23
-5 -7 -12 -5 -21 7 -7 9 -20 17 -28 17 -8 0 -20 11 -26 25 -6 14 -8 25 -3 25
5 0 11 -6 14 -14z m1372 -35 c-8 -27 -22 -27 -30 0 -5 14 -2 25 6 30 19 11 32
-5 24 -30z m-574 -23 c8 -31 8 -51 1 -71 -6 -16 -8 -35 -6 -42 10 -25 -15 -55
-45 -55 -45 0 -69 28 -80 94 -10 52 -9 61 10 87 17 24 27 29 64 29 44 0 44 -1
56 -42z m-482 18 c17 -20 3 -46 -25 -46 -18 0 -24 5 -24 23 0 38 26 50 49 23z
m-419 -11 c0 -8 -4 -15 -10 -15 -5 0 -10 7 -10 15 0 8 5 15 10 15 6 0 10 -7
10 -15z m1287 -6 c18 -18 3 -39 -28 -39 -33 0 -40 23 -11 39 22 13 26 13 39 0z
m108 -28 c-9 -16 -25 -3 -18 15 4 10 9 12 15 6 6 -6 7 -15 3 -21z m430 10 c7
-12 -12 -24 -25 -16 -11 7 -4 25 10 25 5 0 11 -4 15 -9z m-1131 -7 c9 -3 16
-15 16 -25 0 -17 -3 -18 -20 -7 -11 7 -20 18 -20 25 0 15 2 15 24 7z m-464
-13 c0 -5 -6 -11 -12 -13 -7 -3 -13 -13 -13 -24 0 -12 -7 -19 -20 -19 -15 0
-21 8 -23 33 -3 31 -2 32 32 32 20 0 36 -4 36 -9z m1110 5 c0 -3 -4 -8 -10
-11 -5 -3 -10 -1 -10 4 0 6 5 11 10 11 6 0 10 -2 10 -4z m-1240 -15 c0 -6 -4
-13 -10 -16 -5 -3 -10 1 -10 9 0 9 5 16 10 16 6 0 10 -4 10 -9z m230 2 c0 -8
-47 -33 -62 -33 -4 0 -8 9 -8 20 0 16 7 20 35 20 19 0 35 -3 35 -7z m-306 -38
c3 -10 -1 -15 -14 -15 -10 0 -22 -4 -25 -10 -3 -5 -25 -10 -48 -10 -38 0 -40
1 -25 16 14 14 37 22 99 33 4 0 9 -6 13 -14z m126 -91 c0 -3 -9 -19 -21 -35
-20 -29 -55 -37 -93 -23 -23 9 -9 24 21 24 13 0 36 9 50 20 25 20 43 26 43 14z
m1245 -5 c4 -6 14 -8 22 -5 13 6 73 -19 73 -30 0 -2 -24 -2 -52 2 -49 6 -67
17 -68 37 0 11 18 9 25 -4z"/>
<path d="M1885 3530 c-3 -5 -1 -10 4 -10 24 0 8 -29 -48 -84 -40 -39 -60 -54
-64 -45 -4 11 -6 10 -6 -1 -1 -9 6 -25 14 -37 13 -19 13 -21 -8 -27 -12 -3
-31 -6 -43 -6 -31 0 -81 -59 -88 -105 -4 -22 -9 -52 -12 -66 -5 -26 -2 -27 65
-44 68 -16 71 -18 71 -47 0 -21 -6 -31 -20 -35 -16 -4 -20 -14 -20 -44 0 -22
5 -39 10 -39 6 0 22 -7 36 -17 28 -18 18 -33 -22 -33 -12 0 -25 -10 -32 -25
-15 -32 -39 -32 -72 0 l-25 24 -43 -27 c-28 -18 -42 -34 -42 -49 0 -18 -27
-36 -152 -102 -84 -44 -162 -86 -172 -94 -17 -13 9 -15 212 -16 l232 -2 0 68
c0 108 12 127 64 107 21 -8 20 -19 -5 -53 -12 -16 -19 -34 -15 -39 3 -6 1 -14
-5 -17 -6 -5 -8 -20 -5 -40 l6 -32 -236 -5 c-181 -4 -238 -8 -244 -18 -7 -11
-11 -11 -24 -1 -8 7 -21 11 -28 9 -6 -2 24 -23 68 -45 l79 -41 1789 -3 1788
-4 29 55 c35 68 35 76 4 96 -23 15 -27 15 -57 -4 -18 -11 -50 -23 -70 -26
l-37 -7 6 34 c3 19 0 58 -6 87 -6 29 -10 55 -8 57 3 2 32 -9 67 -24 61 -26 63
-26 76 -8 32 44 12 82 -65 125 l-41 24 0 214 0 215 -332 -7 c-311 -6 -334 -8
-348 -25 -13 -17 -38 -21 -185 -31 -93 -6 -180 -13 -193 -16 -12 -2 -38 -27
-58 -54 -19 -27 -40 -50 -47 -53 -17 -5 -23 -277 -7 -307 9 -17 8 -26 -5 -46
-20 -30 -12 -44 23 -44 30 0 67 -22 81 -48 5 -9 12 -40 16 -68 6 -46 4 -52
-13 -56 -11 -3 -25 -2 -32 2 -6 4 -50 1 -97 -7 -59 -9 -90 -10 -97 -3 -16 16
-87 12 -101 -6 -8 -11 -19 -14 -33 -10 -18 6 -21 14 -19 42 1 22 7 34 16 34
16 0 71 48 71 62 0 4 11 32 25 62 14 30 25 61 25 68 0 7 11 0 23 -16 13 -16
26 -25 29 -20 14 23 -22 338 -40 356 -13 13 -182 -81 -182 -101 0 -9 -7 -26
-15 -37 -9 -12 -12 -31 -8 -52 6 -39 -18 -72 -53 -72 -25 0 -40 -15 -25 -24 5
-4 12 -2 16 4 12 19 72 11 95 -13 28 -29 51 -95 44 -124 -13 -50 -103 -81
-155 -53 -25 14 -52 67 -46 91 3 10 -3 25 -14 35 -10 9 -21 24 -24 34 -6 19
21 78 32 70 5 -3 10 6 11 20 2 14 13 35 25 47 11 13 19 24 16 26 -39 32 -59
37 -139 37 -97 0 -200 25 -288 69 -43 21 -76 30 -134 33 -43 3 -84 11 -93 18
-19 16 -19 74 0 90 14 11 10 17 -27 41 -49 33 -62 35 -110 15 -31 -13 -34 -18
-30 -46 2 -16 8 -33 13 -36 18 -10 9 -48 -18 -76 -23 -24 -35 -28 -80 -28 -59
0 -64 5 -89 90 -17 58 -35 76 -62 61 -23 -12 -26 -24 -43 -141 -6 -47 -16 -93
-21 -103 -7 -14 -4 -24 12 -42 13 -14 17 -25 11 -29 -5 -4 -8 -13 -4 -22 5
-14 -44 -70 -54 -60 -3 2 -4 82 -3 177 l1 173 30 48 c17 26 35 48 40 48 5 0 8
3 7 8 -1 4 3 16 9 28 10 18 4 29 -59 95 -39 41 -72 78 -72 83 -2 22 -109 36
-121 16z m-54 -257 c13 -15 32 -39 41 -53 37 -53 9 -166 -28 -115 -10 13 -12
34 -8 71 6 50 5 54 -25 79 -17 15 -31 31 -31 36 0 18 27 8 51 -18z m2115 -175
l24 -53 -3 44 c-1 32 3 46 15 54 30 19 36 -3 31 -105 -5 -93 -7 -98 -28 -98
-17 0 -28 13 -48 57 l-26 57 -3 -54 c-3 -47 -6 -55 -23 -55 -18 0 -20 8 -23
89 -3 106 -1 116 33 116 22 0 30 -9 51 -52z m490 7 c8 -19 16 -35 19 -35 3 0
11 16 19 35 13 30 20 35 47 35 31 0 31 -1 25 -37 -3 -21 -6 -64 -6 -95 0 -51
-2 -58 -20 -58 -18 0 -20 7 -21 58 l0 57 -17 -43 c-21 -54 -41 -52 -64 8 l-17
45 0 -68 c-1 -60 -3 -68 -18 -65 -15 3 -18 17 -21 101 l-3 97 31 0 c26 0 33
-6 46 -35z m-257 -29 c11 -8 15 -8 18 2 7 18 83 16 83 -3 0 -9 -9 -15 -22 -15
-21 -1 -22 -2 -5 -14 22 -17 22 -26 -3 -26 -11 0 -20 -4 -20 -10 0 -5 11 -10
25 -10 16 0 25 -6 25 -16 0 -11 -9 -14 -37 -12 -30 2 -38 8 -43 27 l-6 24 -17
-26 c-12 -19 -26 -27 -46 -27 -27 0 -29 3 -35 56 -3 30 -4 60 0 65 7 12 62 2
83 -15z m-1807 -58 c2 -15 11 -24 27 -26 35 -5 71 7 71 23 0 8 7 15 15 15 8 0
15 -9 15 -20 0 -11 7 -20 15 -20 17 0 49 -56 40 -70 -3 -6 -18 -10 -31 -10
-30 0 -28 -20 4 -35 26 -12 32 -33 25 -100 -8 -80 3 -124 35 -137 37 -16 38
-18 22 -28 -13 -8 -12 -10 3 -10 9 0 23 11 29 25 10 22 8 30 -11 56 -19 25
-21 38 -16 72 13 76 39 106 91 107 38 0 84 -42 84 -76 0 -12 5 -26 10 -29 16
-10 12 -30 -15 -69 -14 -20 -25 -48 -25 -61 0 -29 -16 -32 -42 -8 -14 12 -21
14 -26 6 -4 -7 -28 -26 -52 -42 -44 -30 -45 -30 -59 -11 -12 18 -25 20 -108
20 -90 0 -93 1 -83 19 5 11 10 31 10 45 0 24 3 26 50 26 54 0 55 1 40 30 -7
13 -7 27 1 43 9 19 8 32 -6 60 -9 21 -13 42 -9 49 4 7 9 20 9 30 1 14 -12 18
-82 23 -45 4 -92 5 -103 2 -30 -8 -42 15 -34 64 8 51 16 59 66 59 30 0 37 -4
40 -22z m1013 -28 c3 -5 17 -10 29 -10 35 0 50 -26 52 -89 3 -98 -22 -113
-101 -60 -43 29 -46 34 -40 63 3 17 8 40 10 51 7 49 33 72 50 45z m-281 -210
c-12 -64 -28 -73 -122 -68 -97 5 -118 18 -107 67 8 36 32 40 79 16 35 -19 54
-14 90 24 26 27 29 28 47 13 15 -13 18 -24 13 -52z m-767 16 c1 -15 -7 -42
-18 -59 -11 -20 -19 -26 -19 -16 0 20 -27 33 -32 17 -3 -7 -10 -8 -17 -4 -9 6
-9 11 -1 21 8 9 8 15 0 20 -20 12 -10 27 14 21 33 -8 56 2 49 21 -4 11 -2 14
8 11 7 -2 15 -17 16 -32z m1558 -27 c10 -14 1 -21 -19 -13 -9 3 -13 10 -10 15
7 12 21 11 29 -2z m365 -13 c0 -8 -4 -17 -9 -21 -16 -9 -24 -91 -12 -112 11
-16 11 -16 6 4 -3 12 -3 37 0 56 5 26 14 36 39 45 45 16 59 15 89 -8 73 -58
13 -176 -74 -143 -25 10 -28 9 -31 -10 -4 -29 -34 -34 -43 -8 -6 19 -15 21
-74 21 -58 0 -71 -3 -82 -21 -17 -24 -49 -17 -49 12 0 16 -3 17 -26 7 -19 -9
-33 -9 -55 -1 -16 6 -31 7 -34 3 -3 -5 -13 -6 -21 -3 -17 6 -13 62 7 115 15
37 61 55 103 40 45 -17 49 -15 42 13 l-6 25 115 0 c93 0 115 -3 115 -14z
m-2320 -5 c0 -14 -18 -23 -30 -16 -6 4 -8 11 -5 16 8 12 35 12 35 0z m173 -5
c3 -7 0 -19 -6 -25 -21 -21 2 -23 29 -2 66 52 140 -1 132 -95 -2 -26 -8 -39
-18 -40 -8 0 -28 -4 -43 -9 -18 -4 -39 -3 -55 4 -21 10 -27 10 -34 -3 -5 -9
-21 -15 -36 -15 -17 1 -20 3 -9 6 40 10 12 23 -55 25 -60 1 -64 2 -23 5 28 2
54 8 59 13 6 6 15 5 23 -2 19 -15 25 -6 26 41 1 26 -2 41 -10 41 -14 0 -18 6
-27 43 -6 24 -4 27 18 27 13 0 26 -6 29 -14z m-250 -18 c32 -17 46 -39 46 -73
0 -75 -94 -110 -145 -54 -28 31 -24 87 10 115 30 26 56 30 89 12z m2035 0 c-3
-7 -11 -13 -18 -13 -7 0 -15 6 -17 13 -3 7 4 12 17 12 13 0 20 -5 18 -12z
m804 -16 c52 -51 16 -136 -57 -136 -70 0 -107 78 -63 132 29 35 87 37 120 4z
m-1807 -52 c3 -5 37 -10 76 -10 39 0 69 4 69 10 0 20 36 8 58 -21 26 -32 37
-85 20 -95 -6 -4 -16 0 -23 9 -18 25 -230 25 -243 1 -5 -9 -14 -14 -20 -10
-14 8 -9 50 8 70 7 9 9 16 5 16 -5 0 0 9 10 20 20 22 31 25 40 10z m1633 -42
c3 -15 -4 -18 -35 -18 -22 0 -44 -5 -51 -12 -9 -9 -12 -5 -12 21 l0 32 47 -3
c36 -2 49 -7 51 -20z m-678 -8 c0 -16 -7 -20 -37 -20 -21 0 -45 5 -53 10 -12
7 -8 10 15 10 17 0 37 5 45 10 23 15 30 12 30 -10z m-50 -46 c0 -2 -9 -4 -20
-4 -11 0 -20 4 -20 9 0 5 9 7 20 4 11 -3 20 -7 20 -9z"/>
<path d="M4127 3044 c-14 -14 -7 -35 11 -32 9 2 17 10 17 17 0 16 -18 25 -28
15z"/>
<path d="M2676 2785 c-4 -12 17 -45 29 -45 2 0 10 7 19 15 20 20 10 45 -19 45
-13 0 -25 -7 -29 -15z"/>
<path d="M3945 2677 c-20 -16 -15 -44 11 -54 23 -9 51 23 38 44 -14 23 -27 26
-49 10z"/>
<path d="M4052 2660 c0 -19 2 -27 5 -17 2 9 2 25 0 35 -3 9 -5 1 -5 -18z"/>
<path d="M4300 2676 c-27 -33 18 -72 48 -42 13 13 14 20 6 34 -15 23 -38 26
-54 8z"/>
<path d="M2166 2674 c-19 -19 -17 -33 7 -48 24 -15 56 17 41 41 -15 24 -29 26
-48 7z"/>
<path d="M1800 2676 c-27 -33 18 -72 48 -42 13 13 14 20 6 34 -15 23 -38 26
-54 8z"/>
<path d="M4620 2676 c-27 -33 18 -72 48 -42 13 13 14 20 6 34 -15 23 -38 26
-54 8z"/>
<path d="M3240 2776 c0 -29 24 -40 44 -20 20 20 9 44 -20 44 -19 0 -24 -5 -24
-24z"/>
<path d="M3625 2673 c-18 -18 -16 -32 8 -47 21 -13 51 13 42 36 -10 24 -32 29
-50 11z"/>
<path d="M3540 2635 c1 -26 2 -28 11 -12 8 14 8 22 0 30 -8 8 -11 3 -11 -18z"/>
<path d="M1320 2430 c10 -6 640 -10 1730 -10 1090 0 1720 4 1730 10 10 6 -600
10 -1730 10 -1130 0 -1740 -4 -1730 -10z"/>
<path d="M1325 2340 c30 -20 51 -20 1723 -20 1498 0 1696 2 1722 15 17 9 30
18 30 20 0 3 -789 5 -1752 5 -1753 0 -1753 0 -1723 -20z"/>
<path d="M1400 2271 c0 -4 13 -14 29 -24 27 -16 135 -17 1614 -17 l1586 0 35
21 c20 12 36 22 36 24 0 2 -742 3 -1650 3 -908 0 -1650 -3 -1650 -7z"/>
<path d="M1521 2167 l26 -23 1499 1 c1440 0 1500 1 1527 19 15 10 27 20 27 22
0 2 -699 4 -1552 4 l-1553 -1 26 -22z"/>
<path d="M1619 2080 c23 -20 46 -20 1430 -20 1380 0 1406 1 1431 20 25 19 16
20 -1430 19 -1448 0 -1455 0 -1431 -19z"/>
<path d="M1715 2000 c18 -20 31 -20 1330 -20 1291 0 1313 0 1336 20 24 19 18
19 -1330 20 -1353 0 -1354 0 -1336 -20z"/>
<path d="M1823 1920 c25 -20 40 -20 1229 -20 1179 0 1204 1 1228 20 25 19 17
20 -1229 20 l-1254 0 26 -20z"/>
<path d="M1919 1840 c23 -20 44 -20 1131 -20 1094 0 1107 0 1125 20 18 20 17
20 -1131 20 -1144 -1 -1149 -1 -1125 -20z"/>
<path d="M2025 1760 c18 -20 31 -20 1030 -20 999 0 1012 0 1030 20 18 20 17
20 -1030 20 -1047 0 -1048 0 -1030 -20z"/>
<path d="M2115 1680 c18 -20 31 -20 935 -20 904 0 917 0 935 20 18 20 17 20
-935 20 -952 0 -953 0 -935 -20z"/>
<path d="M2215 1600 c18 -20 31 -20 835 -20 804 0 817 0 835 20 18 20 17 20
-835 20 -852 0 -853 0 -835 -20z"/>
<path d="M2843 669 c-22 -8 -23 -13 -23 -119 0 -101 1 -110 19 -110 17 0 20
11 26 103 9 128 7 137 -22 126z"/>
<path d="M2958 653 c-19 -22 -31 -74 -20 -89 4 -6 18 -17 31 -24 22 -11 23
-11 15 6 -5 11 -8 43 -8 72 0 28 0 52 -1 52 -1 0 -9 -8 -17 -17z"/>
<path d="M3025 569 l0 -100 23 26 c17 20 22 39 22 78 0 48 -19 97 -38 97 -4 0
-7 -45 -7 -101z"/>
<path d="M3100 648 c0 -13 5 -30 10 -38 8 -12 10 -11 10 6 0 23 17 34 55 34
47 0 46 -28 -2 -123 -24 -49 -39 -87 -32 -85 11 4 38 60 106 216 4 9 -14 12
-71 12 -72 0 -76 -1 -76 -22z"/>
<path d="M3295 650 c-12 -14 -20 -41 -23 -80 -5 -71 2 -106 26 -119 16 -8 17
0 17 105 0 63 0 114 -1 114 0 0 -9 -9 -19 -20z"/>
<path d="M3356 658 c5 -7 11 -58 14 -113 l6 -100 18 40 c23 49 18 135 -9 165
-20 22 -41 28 -29 8z"/>
<path d="M2223 503 c-53 -26 -43 -46 17 -38 54 7 63 -3 40 -46 -18 -34 -2 -40
52 -19 62 23 62 23 54 55 -4 16 -13 25 -26 25 -11 0 -35 9 -55 20 -42 23 -41
23 -82 3z"/>
<path d="M2465 472 c-41 -16 -61 -35 -45 -40 12 -4 63 23 79 42 8 9 12 16 10
15 -2 -1 -22 -8 -44 -17z"/>
</g>
</svg>
